SplineFontDB: 3.2
FontName: Nerfopi-Regular
FullName: Nerfopi Regular
FamilyName: Nerfopi
Weight: Regular
Copyright: Copyright (c) 2010 by Pablo Impallari. All rights reserved.\n\nModified into Nerfopi for Lojban/Zbalermorna in 2019 by Jack Humbert.
Version: 001.001
ItalicAngle: 0
UnderlinePosition: -251
UnderlineWidth: 43
Ascent: 750
Descent: 250
InvalidEm: 0
sfntRevision: 0x000100c5
LayerCount: 2
Layer: 0 0 "Back" 1
Layer: 1 0 "Fore" 0
XUID: [1021 647 -312734098 17743]
StyleMap: 0x0040
FSType: 0
OS2Version: 4
OS2_WeightWidthSlopeOnly: 0
OS2_UseTypoMetrics: 0
CreationTime: 1438840825
ModificationTime: 1589914306
PfmFamily: 33
TTFWeight: 400
TTFWidth: 5
LineGap: 0
VLineGap: 0
Panose: 2 15 5 2 2 2 4 3 2 3
OS2TypoAscent: 750
OS2TypoAOffset: 0
OS2TypoDescent: -250
OS2TypoDOffset: 0
OS2TypoLinegap: 198
OS2WinAscent: 816
OS2WinAOffset: 0
OS2WinDescent: 313
OS2WinDOffset: 0
HheadAscent: 750
HheadAOffset: 0
HheadDescent: -250
HheadDOffset: 0
OS2SubXSize: 692
OS2SubYSize: 642
OS2SubXOff: 0
OS2SubYOff: 138
OS2SupXSize: 692
OS2SupYSize: 642
OS2SupXOff: 0
OS2SupYOff: 471
OS2StrikeYSize: 44
OS2StrikeYPos: 272
OS2CapHeight: 750
OS2XHeight: 500
OS2Vendor: 'JH  '
OS2CodePages: 2002019f.00000000
OS2UnicodeRanges: 80000001.10000002.00000000.00000000
Lookup: 4 0 1 "zlmFF" { "zlmFF subtable"  } ['liga' ('latn' <'dflt' > 'DFLT' <'dflt' > ) ]
Lookup: 4 0 1 "zlmSFF" { "zlmSFF subtable"  } ['liga' ('latn' <'dflt' > 'DFLT' <'dflt' > ) ]
Lookup: 4 0 1 "zlmSF" { "zlmSF subtable"  } ['liga' ('latn' <'dflt' > 'DFLT' <'dflt' > ) ]

StartChar: exclam
Encoding: 1 33 1
Width: 224
Flags: W
HStem: 0 159<59 103> 680 20G<136 280 280 280>
VStem: 1 159<58 102>
LayerCount: 2
Fore
SplineSet
150 231 m 1
 65 231 l 1
 136 700 l 1
 280 700 l 1
 150 231 l 1
160 80 m 0
 160 36 125 0 81 0 c 0
 37 0 1 36 1 80 c 0
 1 124 37 159 81 159 c 0
 125 159 160 124 160 80 c 0
EndSplineSet
EndChar

StartChar: question
Encoding: 13 63 2
Width: 441
Flags: W
HStem: 0 159<106 150> 455 245<111.5 333.5> 646 54<227 260.5>
VStem: 55 111<551.5 573> 55 152 119 47 301 124<501 601.5>
LayerCount: 2
Fore
SplineSet
425 579 m 0xd2
 425 386 234 381 185 232 c 1
 119 232 l 1
 119 373 301 425 301 577 c 0
 301 626 275 646 246 646 c 0xa6
 208 646 166 613 166 563 c 0
 166 540 176 505 204 497 c 1
 187 469 159 455 131 455 c 0
 92 455 55 483 55 539 c 0
 55 607 114 700 265 700 c 0
 402 700 425 646 425 579 c 0xd2
207 80 m 0xca
 207 36 172 0 128 0 c 0
 84 0 48 36 48 80 c 0
 48 124 84 159 128 159 c 0
 172 159 207 124 207 80 c 0xca
EndSplineSet
EndChar

StartChar: semicolon
Encoding: 10 59 3
Width: 276
Flags: W
HStem: -110 21G 171 81<103 195> 252 159<151 195>
VStem: 54 139 94 159<309 353> 106 87<-20.5 117>
LayerCount: 2
Fore
SplineSet
94 331 m 0xa8
 94 375 129 411 173 411 c 0
 217 411 253 375 253 331 c 0
 253 287 217 252 173 252 c 0
 129 252 94 287 94 331 c 0xa8
46 91 m 0
 46 135 81 171 125 171 c 0
 169 171 193 139 193 95 c 0
 193 35 145 -53 63 -110 c 1
 56 -105 54 -99 54 -93 c 0xd0
 54 -57 106 -39 106 -2 c 0xc4
 106 5 102 12 93 18 c 0
 67 35 46 58 46 91 c 0
EndSplineSet
EndChar

StartChar: colon
Encoding: 9 58 4
Width: 267
Flags: W
HStem: 56 159<98 142> 296 159<148 192>
VStem: 41 159<113 157> 91 159<353 397>
LayerCount: 2
Fore
SplineSet
41 135 m 4xe0
 41 179 76 215 120 215 c 4
 164 215 200 179 200 135 c 4
 200 91 164 56 120 56 c 4
 76 56 41 91 41 135 c 4xe0
91 375 m 0xd0
 91 419 126 455 170 455 c 0
 214 455 250 419 250 375 c 0
 250 331 214 296 170 296 c 0
 126 296 91 331 91 375 c 0xd0
EndSplineSet
EndChar

StartChar: guillemotleft
Encoding: 18 171 5
Width: 589
Flags: W
HStem: 101 21G<267 267 477 477> 409 20G<336 336 546 546>
LayerCount: 2
Fore
SplineSet
336 429 m 1
 326 374 l 1
 85 254 l 1
 279 158 l 1
 267 101 l 1
 20 238 l 1
 29 279 l 1
 336 429 l 1
546 429 m 1
 536 374 l 1
 295 254 l 1
 489 158 l 1
 477 101 l 1
 230 238 l 1
 239 279 l 1
 546 429 l 1
EndSplineSet
EndChar

StartChar: guillemotright
Encoding: 19 187 6
Width: 586
Flags: W
HStem: 101 21G<15 15 237 237> 409 20G<84 84 306 306>
LayerCount: 2
Fore
SplineSet
75 374 m 1
 84 429 l 1
 330 279 l 1
 319 225 l 1
 15 101 l 1
 29 158 l 1
 269 254 l 1
 75 374 l 1
297 374 m 1
 306 429 l 1
 552 279 l 1
 541 225 l 1
 237 101 l 1
 251 158 l 1
 491 254 l 1
 297 374 l 1
EndSplineSet
EndChar

StartChar: parenleft
Encoding: 7 40 7
Width: 437
Flags: W
HStem: -250 21G<251 251> 730 20G<464 464>
VStem: 138 73<32 203 16 230.5>
LayerCount: 2
Fore
SplineSet
464 750 m 1
 477 710 l 1
 328 636 211 333 211 73 c 0
 211 -41 233 -146 284 -221 c 1
 251 -250 l 1
 173 -164 138 -36 138 100 c 0
 138 361 266 655 464 750 c 1
EndSplineSet
EndChar

StartChar: parenright
Encoding: 8 41 8
Width: 413
Flags: W
HStem: -250 21G<-16 -16> 730 20G<197 197>
VStem: 237 73<296.5 468 269 483.5>
LayerCount: 2
Fore
SplineSet
-16 -250 m 1
 -29 -210 l 1
 120 -136 237 166 237 427 c 0
 237 540 215 646 164 721 c 1
 197 750 l 1
 275 664 310 536 310 400 c 0
 310 138 182 -155 -16 -250 c 1
EndSplineSet
EndChar

StartChar: bracketleft
Encoding: 14 91 9
Width: 400
Flags: W
HStem: -250 62<61 169> 689 61<247 368 247 247>
LayerCount: 2
Fore
SplineSet
182 -188 m 1
 169 -250 l 1
 -24 -250 l 1
 188 750 l 1
 381 750 l 1
 368 689 l 1
 247 689 l 1
 61 -188 l 1
 182 -188 l 1
EndSplineSet
EndChar

StartChar: bracketright
Encoding: 15 93 10
Width: 400
Flags: W
HStem: -250 61<-11 110 -11 169 -24 110> 688 62<175 381 188 296>
LayerCount: 2
Fore
SplineSet
175 688 m 1
 188 750 l 1
 381 750 l 1
 169 -250 l 1
 -24 -250 l 1
 -11 -189 l 1
 110 -189 l 1
 296 688 l 1
 175 688 l 1
EndSplineSet
EndChar

StartChar: braceleft
Encoding: 16 123 11
Width: 352
Flags: W
HStem: -249 45<150 163 163 172> 228 51<115.5 125> 730 20G<340 383 383 383>
VStem: 30 66<-148 -93> 30 185 180 60
LayerCount: 2
Fore
SplineSet
383 750 m 1xf4
 374 700 l 1
 333 700 305 698 283 674 c 0
 247 634 238 590 237 536 c 2
 243 365 l 1
 241 307 227 274 203 254 c 1
 210 246 215 234 215 218 c 0xe8
 215 129 96 -24 96 -124 c 0
 96 -172 119 -204 181 -204 c 1
 172 -249 l 1
 163 -249 l 2
 103 -249 75 -248 49 -207 c 0
 35 -186 30 -163 30 -140 c 0
 30 -46 121 61 147 175 c 0
 149 183 150 191 150 197 c 0
 150 215 141 228 109 228 c 0
 100 228 90 227 77 225 c 1
 89 282 l 1
 101 280 111 279 120 279 c 0
 184 279 187 343 187 390 c 0
 187 445 180 498 180 549 c 0
 180 625 221 750 340 750 c 2
 383 750 l 1xf4
EndSplineSet
EndChar

StartChar: braceright
Encoding: 17 125 12
Width: 352
Flags: W
HStem: -249 21G<30 30 30 73> 222 51<288 297.5> 705 45<241 250 250 263>
VStem: 173 60 198 185 317 66<594 649>
LayerCount: 2
Fore
SplineSet
30 -249 m 1xf4
 39 -199 l 1
 80 -199 108 -197 130 -173 c 0
 166 -133 175 -89 176 -35 c 2
 170 136 l 1
 172 194 186 227 210 247 c 1
 203 255 198 267 198 283 c 0xe8
 198 372 317 525 317 625 c 0
 317 673 294 705 232 705 c 1
 241 750 l 1
 250 750 l 2
 310 750 338 749 364 708 c 0
 378 686 383 664 383 641 c 0
 383 547 292 440 266 326 c 0
 264 318 263 310 263 304 c 0
 263 286 272 273 304 273 c 0
 313 273 323 274 336 276 c 1
 324 219 l 1
 312 221 302 222 293 222 c 0
 229 222 226 158 226 111 c 0
 226 56 233 3 233 -48 c 0
 233 -124 192 -249 73 -249 c 2
 30 -249 l 1xf4
EndSplineSet
EndChar

StartChar: quotedbl
Encoding: 2 34 13
Width: 420
Flags: W
HStem: 561 189<62 228 123 137 219 228 280 294 219 219>
LayerCount: 2
Fore
SplineSet
62 561 m 1
 123 750 l 1
 228 750 l 1
 137 561 l 1
 62 561 l 1
219 561 m 1
 280 750 l 1
 385 750 l 1
 294 561 l 1
 219 561 l 1
EndSplineSet
EndChar

StartChar: ampersand
Encoding: 6 38 14
Width: 682
Flags: W
HStem: -6 90<149 338> 278 97<391 519> 524 226<244 454.5> 706 44<313.5 361.5 244 382>
VStem: 11 175<180.5 244> 93 135<554 614.5> 416 83<619.5 640>
LayerCount: 2
Fore
SplineSet
676 413 m 1xea
 682 413 l 1
 682 358 612 288 530 274 c 1
 454 0 316 -6 218 -6 c 0
 80 -6 11 93 11 196 c 0xea
 11 292 71 392 192 417 c 1
 124 454 93 512 93 569 c 0
 93 660 173 750 315 750 c 0
 408 750 499 713 499 616 c 0
 499 563 480 524 429 524 c 0xe6
 413 524 391 528 372 550 c 1
 397 557 416 607 416 632 c 0
 416 648 414 706 350 706 c 0
 277 706 228 650 228 583 c 0xd6
 228 525 266 460 360 418 c 1
 233 366 186 286 186 217 c 0
 186 144 239 84 303 84 c 0
 373 84 453 126 484 273 c 1
 459 274 436 278 413 278 c 0
 369 278 338 263 319 233 c 1
 312 234 l 1
 332 316 402 375 505 375 c 0
 533 375 556 370 581 370 c 0
 618 370 659 383 676 413 c 1xea
EndSplineSet
EndChar

StartChar: dollar
Encoding: 4 36 15
Width: 403
Flags: W
VStem: -43 79 173 110
LayerCount: 2
Fore
SplineSet
110 -27 m 1
 134 108 l 1
 73 113 24 143 24 222 c 0
 24 274 57 308 96 308 c 0
 124 308 139 296 139 283 c 1
 111 278 99 249 99 209 c 0
 99 180 119 158 141 148 c 1
 177 344 l 1
 129 384 71 417 71 481 c 0
 71 555 151 609 225 612 c 1
 244 718 l 1
 302 718 l 1
 277 609 l 1
 320 602 364 582 364 526 c 0
 364 480 346 450 316 450 c 0
 300 450 290 457 277 473 c 1
 294 483 301 504 301 525 c 0
 301 540 291 560 269 569 c 1
 233 408 l 1
 284 375 346 337 346 255 c 0
 346 160 270 109 166 107 c 1
 137 -27 l 1
 110 -27 l 1
241 234 m 0
 241 265 229 289 212 310 c 1
 175 144 l 1
 223 150 241 190 241 234 c 0
166 500 m 0
 166 475 177 456 194 439 c 1
 218 574 l 1
 179 566 166 530 166 500 c 0
EndSplineSet
EndChar

StartChar: numbersign
Encoding: 3 35 16
Width: 659
Flags: W
HStem: -27 240<127 170 66 184 127 127 307 350 66 364 307 307> 111 102<66 152 45 170 237 332 66 214 417 504> 326 102<110 191 89 209 284 371 110 262 464 548> 698 20G<261 349 349 349 441 529 529 529>
LayerCount: 2
Fore
SplineSet
307 -27 m 1xb0
 332 111 l 1
 214 111 l 1x70
 184 -27 l 1
 127 -27 l 1xb0
 152 111 l 1
 45 111 l 1
 66 213 l 1
 170 213 l 1
 191 326 l 1
 89 326 l 1
 110 428 l 1
 209 428 l 1
 261 718 l 1
 349 718 l 1
 284 428 l 1
 389 428 l 1
 441 718 l 1
 529 718 l 1
 464 428 l 1
 568 428 l 1
 548 326 l 1
 442 326 l 1
 417 213 l 1
 524 213 l 1
 504 111 l 1
 394 111 l 1x70
 364 -27 l 1
 307 -27 l 1xb0
262 326 m 1xb0
 237 213 l 1
 350 213 l 1
 371 326 l 1
 262 326 l 1xb0
EndSplineSet
EndChar

StartChar: less
Encoding: 11 60 17
Width: 359
Flags: W
HStem: 101 21G<267 267> 409 20G<336 336>
LayerCount: 2
Fore
SplineSet
336 429 m 1
 326 374 l 1
 85 254 l 1
 279 158 l 1
 267 101 l 1
 20 238 l 1
 29 279 l 1
 336 429 l 1
EndSplineSet
EndChar

StartChar: greater
Encoding: 12 62 18
Width: 344
Flags: W
HStem: 101 21G<15 15> 409 20G<84 84>
LayerCount: 2
Fore
SplineSet
75 374 m 1
 84 429 l 1
 330 279 l 1
 319 225 l 1
 15 101 l 1
 29 158 l 1
 269 254 l 1
 75 374 l 1
EndSplineSet
EndChar

StartChar: percent
Encoding: 5 37 19
Width: 644
Flags: W
HStem: 0 37<438 475.5 438 509> 291 37<489 513.5> 374 37<195 232.5 195 251> 667 35<252 276.5> 730 20G<507 579 579 579>
VStem: 107 72<460 484 460 547> 291 60<553.5 621.5> 355 67<86 110 86 173> 531 78<172.5 240.5>
LayerCount: 2
Fore
SplineSet
579 750 m 1
 193 0 l 1
 121 0 l 1
 507 750 l 1
 579 750 l 1
269 702 m 0
 327 702 351 662 351 589 c 0
 351 504 299 374 203 374 c 0
 125 374 107 416 107 488 c 0
 107 606 169 702 269 702 c 0
181 519 m 0
 180 507 179 492 179 476 c 0
 179 444 184 411 206 411 c 0
 259 411 291 503 291 604 c 0
 291 639 287 667 266 667 c 0
 238 667 189 616 181 519 c 0
517 328 m 0
 575 328 609 288 609 215 c 0
 609 130 567 0 451 0 c 0
 373 0 355 42 355 114 c 0
 355 232 417 328 517 328 c 0
424 145 m 0
 423 133 422 118 422 102 c 0
 422 70 427 37 449 37 c 0
 502 37 531 122 531 223 c 0
 531 258 524 291 503 291 c 0
 475 291 432 242 424 145 c 0
EndSplineSet
EndChar

StartChar: NameMe.66773
Encoding: 256 -1 20
Width: 551
VWidth: 988
Flags: W
HStem: 0 21G<70 126.5 398 487> 480 20G<422 487>
VStem: 70 88<144.421 728> 398 89<0 357.625>
LayerCount: 2
Fore
SplineSet
70 728 m 1
 158 728 l 1
 158 192 l 2
 157 169 l 0
 157 161 157 153 156 144 c 1
 400 484 l 2
 402 486 404 489 407 492 c 0
 409 494 412 496 414 497 c 0
 416 498 420 500 424 500 c 0
 428 500 433 500 437 500 c 2
 487 500 l 1
 487 0 l 1
 398 0 l 1
 398 312 l 2
 399 334 l 0
 399 342 399 350 400 358 c 1
 156 17 l 2
 154 14 149 10 141 4 c 0
 137 1 131 0 122 0 c 2
 70 0 l 1
 70 728 l 1
EndSplineSet
EndChar

StartChar: NameMe.66774
Encoding: 257 -1 21
Width: 551
VWidth: 988
Flags: W
HStem: 0 21G<70 126.5> 480 20G<70 158 422 487>
VStem: 70 88<144.421 500> 398 89<-169 357.625>
LayerCount: 2
Fore
SplineSet
70 500 m 1
 158 500 l 1
 158 192 l 2
 158 185 157 177 157 169 c 0
 157 161 157 153 156 144 c 1
 400 484 l 2
 402 486 404 489 407 492 c 0
 409 494 412 496 414 497 c 0
 416 498 420 500 424 500 c 0
 428 500 433 500 437 500 c 2
 487 500 l 1
 487 -169 l 1
 398 -169 l 1
 398 312 l 2
 398 319 399 326 399 334 c 0
 399 342 399 350 400 358 c 1
 156 17 l 2
 154 14 149 10 141 4 c 0
 137 1 131 0 122 0 c 2
 70 0 l 1
 70 500 l 1
EndSplineSet
EndChar

StartChar: NameMe.66777
Encoding: 258 -1 22
Width: 415
VWidth: 988
Flags: W
HStem: 0 21G<101 125.5 298.5 357> 480 20G<269 357>
VStem: 70 88<64 728> 269 88<109.359 500> 281 76<0.0703125 72>
LayerCount: 2
Fore
SplineSet
158 64 m 1xe8
 175 67 192 73 207 81 c 0
 230 93 250 110 269 132 c 1
 269 500 l 1
 357 500 l 1xf0
 357 0 l 1
 305 0 l 2
 292 0 284 6 281 18 c 1
 274 72 l 1
 252 48 228 29 201 16 c 0
 174 3 143 -3 108 -3 c 0
 94 -3 82 -2 70 -0 c 1
 70 32 70 32 70 728 c 1
 158 728 l 1
 158 64 l 1xe8
EndSplineSet
EndChar

StartChar: NameMe.66775
Encoding: 259 -1 23
Width: 415
VWidth: 988
Flags: W
HStem: 0 21G<70 150.5> 480 20G<272 357>
VStem: 70 88<76 728> 272 85<126.563 500>
LayerCount: 2
Fore
SplineSet
158 76 m 17
 234 89 272 132 272 204 c 10
 272 500 l 1
 357 500 l 1
 357 202 l 2
 357 141 335 92 292 56 c 0
 248 19 188 0 113 0 c 2
 70 0 l 1
 70 728 l 1
 158 728 l 1
 158 76 l 17
EndSplineSet
EndChar

StartChar: NameMe.66778
Encoding: 260 -1 24
Width: 415
VWidth: 988
Flags: W
HStem: 0 21G<70 158> 480 20G<70 128.5 301.5 326>
VStem: 70 88<0 391.641> 70 76<428 499.93> 269 88<-169 436>
LayerCount: 2
Fore
SplineSet
269 436 m 1xd8
 252 433 235 428 220 420 c 0
 197 408 177 391 158 369 c 1
 158 0 l 1
 70 0 l 1xe8
 70 500 l 1
 122 500 l 2
 135 500 143 494 146 482 c 1
 153 428 l 1
 175 452 199 471 226 484 c 0
 253 497 284 504 319 504 c 0
 333 504 345 503 357 501 c 1
 357 498 357 498 357 -169 c 1
 269 -169 l 1
 269 436 l 1xd8
EndSplineSet
EndChar

StartChar: NameMe.66776
Encoding: 261 -1 25
Width: 415
VWidth: 988
Flags: W
HStem: 0 21G<70 155> 480 20G<276.5 357>
VStem: 70 85<0 372.088> 269 88<-169 424>
LayerCount: 2
Fore
SplineSet
269 424 m 17
 193 411 155 368 155 296 c 10
 155 0 l 1
 70 0 l 1
 70 299 l 2
 70 360 92 409 135 445 c 0
 179 482 239 500 314 500 c 2
 357 500 l 1
 357 -169 l 1
 269 -169 l 1
 269 424 l 17
EndSplineSet
EndChar

StartChar: NameMe.66779
Encoding: 262 -1 26
Width: 550
VWidth: 988
Flags: W
HStem: 0 78<158 275.633> 480 20G<70 158 398 487>
VStem: 70 88<78 500> 398 89<178.004 500> 409 78<0.287109 140>
LayerCount: 2
Fore
SplineSet
403 140 m 1xe8
 356 47 272 0 150 0 c 0
 110 0 110 0 70 0 c 1
 70 77 l 2
 70 466 l 0
 70 500 l 1
 158 500 l 0
 158 78 l 0
 162 78 l 2
 267 78 338 111 377 178 c 0
 385 191 392 207 398 224 c 1
 398 500 l 1
 487 500 l 1xf0
 487 0 l 1
 436 0 l 2
 419 0 410 8 409 24 c 2
 403 140 l 1xe8
EndSplineSet
EndChar

StartChar: NameMe.66780
Encoding: 263 -1 27
Width: 550
VWidth: 988
Flags: W
HStem: 0 77<158 218.839> 480 20G<70 158 403.5 487>
VStem: 70 88<77 500> 398 89<0 359>
LayerCount: 2
Fore
SplineSet
487 500 m 1
 487 0 l 1
 443 0 442 0 398 0 c 1
 398 282 l 2
 398 316 399 338 400 347 c 0
 401 351 402 355 402 359 c 257
 369 120 281 0 139 0 c 2
 70 0 l 1
 70 500 l 1
 158 500 l 1
 158 77 l 1
 258 77 334 213 384 483 c 0
 386 495 395 500 412 500 c 2
 487 500 l 1
EndSplineSet
EndChar

StartChar: NameMe.66781
Encoding: 264 -1 28
Width: 359
VWidth: 988
Flags: W
HStem: 0 21G<70 158> 423 86<222.581 345.904>
VStem: 70 88<0 362.216 401 728>
LayerCount: 2
Fore
SplineSet
158 728 m 5
 158 460 l 4
 158 401 l 5
 173 435 191 461 213 480 c 4
 235 499 262 509 295 509 c 4
 306 509 316 508 326 506 c 4
 336 504 344 501 352 496 c 5
 346 430 l 5
 344 421 339 417 331 417 c 4
 326 417 319 418 310 420 c 4
 301 422 292 423 281 423 c 4
 265 423 250 421 238 416 c 4
 226 411 215 404 205 395 c 4
 195 386 187 374 179 361 c 4
 171 348 165 332 158 315 c 5
 158 0 l 5
 100 0 l 4
 70 0 l 5
 70 728 l 5
 158 728 l 5
EndSplineSet
EndChar

StartChar: NameMe.66782
Encoding: 265 -1 29
Width: 359
VWidth: 988
Flags: W
HStem: -7 87<26.0967 149.419> 480 20G<214 302>
VStem: 214 88<-169 101 139.784 500>
LayerCount: 2
Fore
SplineSet
214 -169 m 1
 214 42 l 0
 214 101 l 1
 199 67 181 41 159 22 c 0
 137 3 110 -7 77 -7 c 0
 66 -7 56 -5 46 -3 c 0
 36 -1 28 2 20 7 c 1
 26 73 l 1
 28 82 34 85 42 85 c 0
 47 85 53 85 62 83 c 0
 71 81 80 80 91 80 c 0
 107 80 122 82 134 87 c 0
 146 92 157 98 167 107 c 0
 177 116 185 128 193 141 c 0
 201 154 207 170 214 187 c 1
 214 500 l 1
 272 500 l 0
 302 500 l 1
 302 -169 l 1
 214 -169 l 1
EndSplineSet
EndChar

StartChar: NameMe.66783
Encoding: 266 -1 30
Width: 471
VWidth: 988
Flags: W
HStem: -174 68<223.104 376.686> 440 68<226.167 378.785>
VStem: 56 90<-1.39722 336.01>
LayerCount: 2
Fore
SplineSet
432 412 m 2
 429 408 427 405 424 403 c 0
 421 401 419 400 414 400 c 0
 409 400 403 402 397 406 c 0
 391 410 384 415 376 420 c 0
 368 425 357 430 345 434 c 0
 333 438 319 440 302 440 c 0
 276 440 253 435 234 424 c 0
 215 413 198 397 185 375 c 0
 172 353 162 324 156 290 c 0
 150 256 146 214 146 167 c 0
 146 117 150 75 157 40 c 0
 164 5 174 -23 187 -45 c 0
 200 -67 217 -82 236 -92 c 0
 255 -102 277 -106 302 -106 c 0
 321 -106 336 -104 349 -99 c 0
 362 -94 371 -88 380 -82 c 0
 389 -76 396 -69 402 -64 c 0
 408 -59 414 -57 420 -57 c 0
 424 -57 427 -58 430 -59 c 0
 433 -60 435 -62 437 -65 c 2
 461 -97 l 1
 450 -111 439 -122 425 -132 c 0
 411 -142 396 -150 381 -156 c 0
 366 -162 350 -167 334 -170 c 0
 318 -173 302 -174 287 -174 c 0
 253 -174 221 -168 193 -156 c 0
 165 -144 141 -124 121 -97 c 0
 101 -70 84 -35 73 7 c 0
 62 49 56 101 56 162 c 0
 56 276 76 361 117 420 c 0
 158 479 217 508 294 508 c 0
 328 508 358 502 385 491 c 0
 412 480 435 464 456 443 c 1
 432 412 l 2
EndSplineSet
EndChar

StartChar: NameMe.66784
Encoding: 267 -1 31
Width: 446
VWidth: 988
Flags: W
HStem: -179 67<166.628 313.656> 432 68<29 293>
VStem: 30 75<-50.9284 116.254>
LayerCount: 2
Fore
SplineSet
293 432 m 1
 29 432 l 1
 29 500 l 1
 406 500 l 1
 406 464 l 2
 406 460 405 455 403 449 c 0
 401 442 398 436 394 432 c 2
 166 173 l 2
 125 126 105 80 105 35 c 3
 105 -14 119 -50 146 -75 c 0
 174 -100 205 -112 241 -112 c 3
 277 -112 313 -96 351 -64 c 1
 366 -52 379 -54 390 -69 c 2
 411 -97 l 1
 362 -152 303 -179 234 -179 c 0
 177 -179 130 -161 91 -126 c 0
 50 -89 30 -41 30 19 c 3
 30 91 56 157 107 217 c 2
 293 432 l 1
EndSplineSet
EndChar

StartChar: py
Encoding: 20 60800 32
Width: 467
GlyphClass: 2
Flags: W
HStem: 0 21G<-44 150.203> 403 105<350.347 398>
VStem: 397.836 67.1641<343.15 404>
AnchorPoint: "Top" 429 657 basechar 0
AnchorPoint: "Bottom" 226 0 basechar 0
LayerCount: 2
Fore
SplineSet
120 93 m 1
 223.885742188 169.225585938 390.42578125 291.534179688 397.8359375 400 c 0
 397.904296875 401.002929688 397.958984375 403.002929688 398 404 c 1
 392 403 393 403 388 403 c 0
 353 403 341 428 341 459 c 0
 341 493 373 508 409 508 c 0
 446 508 465 467 465 424 c 0
 465 272.291015625 200.405550127 79.8095398443 100 0 c 1
 -44 0 l 1
 101 680 l 1
 249 700 l 1
 120 93 l 1
EndSplineSet
EndChar

StartChar: ty
Encoding: 21 60801 33
Width: 515
GlyphClass: 2
Flags: W
HStem: -7 91<332 462> 0 21G<-44 104.175> 433 75<246.338 352>
VStem: 247 145<88.2833 232.844> 294 146<259.43 425.208>
AnchorPoint: "Top" 413 658 basechar 0
AnchorPoint: "Bottom" 277 0 basechar 0
LayerCount: 2
Fore
SplineSet
438 359 m 2x68
 397 153 l 2
 394 141 392 130 392 121 c 0
 392 99 403 84 442 84 c 0
 482 84 534 147 574 179 c 1
 608 179 l 1
 562 133 449 -7 371 -7 c 0
 293 -7 247 27 247 102 c 0xb0
 247 118 249 134 253 153 c 2
 291 348 l 2
 293 357 294 366 294 374 c 0
 294 410 275 433 248 433 c 0
 224 433 206 426 186 412 c 1
 100 0 l 1
 -44 0 l 1
 101 680 l 1
 249 700 l 1
 195 455 l 1
 236 484 282 508 325 508 c 0
 379 508 440 450 440 383 c 0
 440 375 440 367 438 359 c 2x68
EndSplineSet
Substitution2: "Single Substitution lookup 76 subtable" ty.fina
EndChar

StartChar: ky
Encoding: 22 60802 34
Width: 509
GlyphClass: 2
Flags: W
HStem: -7 91<318.133 463> 0 21G<-44 134.11> 480 20G<299.474 469>
AnchorPoint: "Top" 411 657 basechar 0
AnchorPoint: "Bottom" 268 0 basechar 0
LayerCount: 2
Fore
SplineSet
129.764413174 139.832813569 m 1x60
 200.960854934 230.951669718 273.947724667 313.602051767 325 500 c 1
 469 500 l 1
 397 153 l 2
 395 142 393 131 393 122 c 0
 393 100 403 84 443 84 c 0
 483 84 535 147 575 179 c 1
 609 179 l 1
 563 133 447 -7 369 -7 c 3xa0
 267.266601562 -7 228.8515625 56.4072265625 253 153 c 2
 272.192707577 250.630836419 l 1
 222.558596387 160.813783075 168.220068128 74.1124136859 100 0 c 1
 -44 0 l 1
 101 680 l 1
 249 700 l 1
 129.764413174 139.832813569 l 1x60
EndSplineSet
Substitution2: "Single Substitution lookup 76 subtable" ky.fina
EndChar

StartChar: fy
Encoding: 23 60803 35
Width: 427
GlyphClass: 2
Flags: W
HStem: 0 42<160 285.371> 480 20G<143.61 307>
VStem: 163 144<402.19 500>
AnchorPoint: "Top" 250 657 basechar 0
AnchorPoint: "Bottom" 228 0 basechar 0
LayerCount: 2
Fore
SplineSet
307 500 m 1
 272.728515625 340.267578125 245.802734375 173.934570312 160 42 c 1
 183 41 210 40 233 40 c 0
 264 40 288 44 288 62 c 1
 279 62 271 74 271 91 c 0
 271 138 302 151 334 151 c 0
 362 151 381 125 381 93 c 0
 381 42 344 0 264 0 c 2
 -5 0 l 1
 60.9404296875 88.705078125 124.220703125 288.486328125 163 500 c 1
 307 500 l 1
EndSplineSet
EndChar

StartChar: ly
Encoding: 24 60804 36
Width: 360
GlyphClass: 2
Flags: W
HStem: -7 85<82.5 236.037> 468 40<215.151 291.977>
VStem: -13 135<100.088 309.059> 297 57<407.422 465.192>
AnchorPoint: "Top" 273 657 basechar 0
AnchorPoint: "Bottom" 263 0 basechar 0
LayerCount: 2
Fore
SplineSet
292 401 m 1
 295 412 297 421 297 429 c 0
 297 453 282 468 260 468 c 0
 176 468 122 300 122 192 c 0
 122 133 134 78 195 78 c 0
 266 78 323 127 369 179 c 1
 403 179 l 1
 355 125 301 -7 124 -7 c 0
 41 -7 -13 46 -13 164 c 0
 -13 310 50 508 244 508 c 0
 298 508 354 489 354 434 c 0
 354 423 353 414 349 401 c 1
 344 404 336 407 324 407 c 0
 315 407 305 405 292 401 c 1
EndSplineSet
Substitution2: "Single Substitution lookup 76 subtable" ly.fina
EndChar

StartChar: sy
Encoding: 25 60805 37
Width: 510
GlyphClass: 2
Flags: W
HStem: -7 84<58 179.23> 0 91<330.5 454> 452 56<208.315 300.219>
VStem: -18 135<89.1289 289.222>
AnchorPoint: "Top" 234 658 basechar 0
AnchorPoint: "Bottom" 276 0 basechar 0
LayerCount: 2
Fore
SplineSet
355 680 m 1xb0
 503 700 l 1
 389 160 l 2
 387 149 384 138 384 128 c 0
 384 106 395 91 434 91 c 0
 474 91 526 147 566 179 c 1
 600 179 l 1
 554 133 441 0 363 0 c 0x70
 298 0 255 24 242 76 c 1
 212 35 167 -7 106 -7 c 0
 10 -7 -18 62 -18 121 c 0
 -18 293 44 508 244 508 c 0
 268 508 293 498 311 483 c 1
 355 680 l 1xb0
252 452 m 0
 177 452 117 284 117 148 c 0
 117 88 150 77 175 77 c 0xb0
 198 77 220 99 239 127 c 1
 240 137 242 148 245 160 c 2
 301 434 l 1
 285 448 266 452 252 452 c 0
EndSplineSet
Substitution2: "Single Substitution lookup 76 subtable" sy.fina
EndChar

StartChar: cy
Encoding: 26 60806 38
Width: 525
GlyphClass: 2
Flags: W
HStem: 0 91<351.664 466.234> 480 20G<65.76 214>
VStem: 255 145<95.4163 189.065>
AnchorPoint: "Top" 159 657 basechar 0
AnchorPoint: "Bottom" 283 0 basechar 0
LayerCount: 2
Fore
SplineSet
332 500 m 1
 371 680 l 1
 519 700 l 1
 447.701592534 362.270701475 l 2
 447.43737833 358.513800983 446.939225123 354.756900492 446 351 c 2
 405 160 l 2
 403 149 400 138 400 128 c 0
 400 106 411 91 450 91 c 0
 490 91 542 147 582 179 c 1
 616 179 l 1
 570 133 457 0 379 0 c 0
 301 0 255 34 255 109 c 0
 255.000000492 123.685693725 256.684919266 138.371387547 260.054756813 155.376850234 c 0
 260.348581104 156.868323226 260.663437112 158.407336333 261 160 c 0
 301 350 l 1
 318.282258206 435.418079745 218.028945505 411.00125084 187 373 c 1
 108 0 l 1
 -36 0 l 1
 70 500 l 1
 214 500 l 1
 198 429 l 1
 221.76442792 452.909329496 270.590690338 499.910408112 332 500 c 1
EndSplineSet
Substitution2: "Single Substitution lookup 76 subtable" cy.fina
EndChar

StartChar: my
Encoding: 27 60807 39
Width: 443
GlyphClass: 2
Flags: W
HStem: 0 36.3154<117.305 289.591> 454.085 53.915<151.497 258.413>
VStem: 26 110<316.85 432.818> 272.904 113.108<62.1251 138.249> 278.414 143.598<304.612 434.177>
AnchorPoint: "Top" 247 657 basechar 0
AnchorPoint: "Bottom" 256 0 basechar 0
LayerCount: 2
Fore
SplineSet
292.143554688 59 m 0xe8
 292.118164062 59.3291015625 292.064453125 61.662109375 292 62 c 1
 280.024414062 64.4892578125 272.904296875 78.458984375 272.904296875 94.576171875 c 0
 272.904296875 118.421875 288.491210938 146.970703125 327 150 c 0
 329.188476562 150.171875 331.301757812 150.254882812 333.341796875 150.254882812 c 0
 374.709960938 150.254882812 386.012695312 116.033203125 386.012695312 95.1943359375 c 0xf0
 386.012695312 94.791015625 386.008789062 94.392578125 386 94 c 0
 384.90234375 42.2060546875 356.048828125 4.171875 275 0 c 0
 -10 0 l 1
 -10.0361328125 1.2060546875 -10.0546875 2.4072265625 -10.0546875 3.603515625 c 0
 -10.0546875 152.418945312 278.4140625 224.827148438 278.4140625 366.505859375 c 0
 278.4140625 369.63671875 278.278320312 372.80078125 278 376 c 0
 271.662109375 448.96875 234.083984375 454.084960938 211.627929688 454.084960938 c 0
 152.044921875 454.084960938 136 423.677734375 136 375.16796875 c 0
 136 375 l 0
 136.017578125 352 146 315 174 307 c 1
 148 284 121 273 97 273 c 0
 57 273 26 305 26 363 c 0
 26 431 81 508 232 508 c 0
 369 508 420.139648438 458 422 349 c 0
 422.0078125 348.55078125 422.028320312 348.1015625 422.01171875 347.653320312 c 0
 418.545898438 256 306.254882812 193.365234375 221.33984375 132 c 0
 166.517578125 92.3818359375 120.381835938 60.328125 117 42 c 1
 122.876953125 40.3095703125 169.797851562 36.3154296875 208.604492188 36.3154296875 c 0
 250.45703125 36.3154296875 292.176757812 40.9609375 292.176757812 58.1494140625 c 0
 292.176757812 58.4296875 292.166015625 58.712890625 292.143554688 59 c 0xe8
EndSplineSet
EndChar

StartChar: xy
Encoding: 28 60808 40
Width: 418
GlyphClass: 2
Flags: W
HStem: -7 97<140.842 226.304> 449 59<212.03 295.611>
VStem: -7 133<105.673 301.316>
AnchorPoint: "Top" 282 656 basechar 0
AnchorPoint: "Bottom" 281 0 basechar 0
LayerCount: 2
Fore
SplineSet
256 508 m 0
 351 508 375 436 377 363 c 1
 383 357 392 354 406 354 c 0
 453 354 474 388 511 403 c 1
 515 382 l 1
 484 343 432 310 374 294 c 1
 355 93 246 -7 146 -7 c 0
 39 -7 -7 39 -7 158 c 0
 -7 404 118 508 256 508 c 0
193 90 m 0
 254 90 288 187 300 284 c 1
 271 284 258 305 258 329 c 0
 258 358 275 389 302 399 c 1
 299 432 288 449 260 449 c 0
 166 449 126 247 126 167 c 0
 126 107 154 90 193 90 c 0
EndSplineSet
Substitution2: "Single Substitution lookup 76 subtable" xy.fina
EndChar

StartChar: denpabu
Encoding: 29 60809 41
Width: 256
VWidth: 988
GlyphClass: 2
Flags: HW
HStem: 199 124<81.6639 173.735>
VStem: 66 124<213.33 306.735>
AnchorPoint: "Top" 167 657 basechar 0
AnchorPoint: "Bottom" 88 0 basechar 0
LayerCount: 2
Fore
SplineSet
48 260 m 0xe0
 48 304 83 340 127 340 c 0
 171 340 207 304 207 260 c 0
 207 216 171 181 127 181 c 0
 83 181 48 216 48 260 c 0xe0
EndSplineSet
Substitution2: "Single Substitution lookup 73 subtable" denpabu.cas
EndChar

StartChar: yhy
Encoding: 30 60810 42
Width: 269
GlyphClass: 2
Flags: HW
HStem: 0 91<72.5 202> 480 20G<59.7647 208>
VStem: -14 146<95.1925 234.375>
AnchorPoint: "Top" 171 656 basechar 0
AnchorPoint: "Bottom" 119 0 basechar 0
LayerCount: 2
Fore
SplineSet
64 500 m 1
 208 500 l 1
 136 160 l 2
 134 149 132 138 132 129 c 0
 132 107 142 91 182 91 c 0
 222 91 274 147 314 179 c 1
 348 179 l 1
 302 133 189 0 111 0 c 0
 34 0 -14 34 -14 109 c 0
 -14 124 -12 141 -8 160 c 2
 64 500 l 1
EndSplineSet
Substitution2: "Single Substitution lookup 76 subtable" yhy.fina
Substitution2: "Single Substitution lookup 74 subtable" yhy.cas
EndChar

StartChar: cnimahobu
Encoding: 31 60811 43
Width: 563
GlyphClass: 2
Flags: W
HStem: 0 21G<377.5 430> 480 20G<357.742 532>
VStem: 311 144<91.8085 234.102>
LayerCount: 2
Fore
SplineSet
532 500 m 5
 460 160 l 6
 457 148 455 137 455 126 c 4
 455 105 463 89 491 89 c 4
 498 89 509 89 517 92 c 5
 489 6 447 0 413 0 c 4
 342 0 311 47 311 110 c 4
 311 126 313.357421875 142.923828125 317 160 c 6
 365 385 l 5
 282 285 197.270507812 232.461914062 107.443359375 253.201171875 c 4
 37.2880859375 269.3984375 21.4775390625 312.047851562 37 379.280273438 c 5
 45.5439453125 376.28125 50.4140625 361.814453125 100.107421875 350.341796875 c 4
 264.775390625 312.32421875 326.484375 407.071289062 389 500 c 5
 532 500 l 5
EndSplineSet
EndChar

StartChar: patonga
Encoding: 32 60812 44
Width: 0
VWidth: 988
GlyphClass: 4
Flags: W
HStem: -204 141
VStem: -359 198
AnchorPoint: "Bottom" -260 0 mark 0
LayerCount: 2
Fore
SplineSet
-161 -63 m 5
 -276 -190 l 6
 -281 -195 -286 -199 -290 -201 c 4
 -294 -203 -300 -204 -307 -204 c 6
 -359 -204 l 5
 -286 -84 l 6
 -281 -76 -276 -71 -271 -68 c 4
 -266 -65 -258 -63 -247 -63 c 6
 -161 -63 l 5
EndSplineSet
EndChar

StartChar: retonga
Encoding: 33 60813 45
Width: 0
VWidth: 988
GlyphClass: 4
Flags: W
HStem: -204 141
VStem: -348 196
AnchorPoint: "Bottom" -250 0 mark 0
LayerCount: 2
Fore
SplineSet
-265 -63 m 6
 -254 -63 -245 -65 -240 -68 c 4
 -235 -71 -231 -76 -226 -84 c 6
 -152 -204 l 5
 -202 -204 l 6
 -209 -204 -215 -203 -219 -201 c 4
 -223 -199 -227 -195 -232 -190 c 6
 -348 -63 l 5
 -265 -63 l 6
EndSplineSet
EndChar

StartChar: citonga
Encoding: 34 60814 46
Width: 0
VWidth: 988
GlyphClass: 4
Flags: W
HStem: -199 130
VStem: -420 302
AnchorPoint: "Bottom" -269 0 mark 0
LayerCount: 2
Fore
SplineSet
-118 -199 m 5
 -177 -199 l 6
 -181 -199 -183 -199 -187 -197 c 4
 -191 -195 -194 -194 -196 -192 c 6
 -260 -125 l 6
 -262 -123 -263 -122 -264 -120 c 4
 -265 -118 -266 -117 -268 -115 c 5
 -270 -117 -271 -118 -272 -120 c 4
 -273 -122 -274 -123 -276 -125 c 6
 -340 -192 l 6
 -342 -194 -344 -195 -348 -197 c 4
 -352 -199 -355 -199 -359 -199 c 6
 -420 -199 l 5
 -310 -69 l 5
 -228 -69 l 5
 -118 -199 l 5
EndSplineSet
EndChar

StartChar: votonga
Encoding: 35 60815 47
Width: 0
VWidth: 988
GlyphClass: 4
Flags: W
HStem: -194 130
VStem: -421 302
AnchorPoint: "Bottom" -270 0 mark 0
LayerCount: 2
Fore
SplineSet
-119 -64 m 1
 -229 -194 l 1
 -311 -194 l 1
 -421 -64 l 1
 -360 -64 l 2
 -356 -64 -353 -64 -349 -66 c 0
 -345 -68 -343 -69 -341 -71 c 2
 -277 -138 l 2
 -275 -140 -274 -141 -273 -143 c 0
 -272 -145 -271 -146 -269 -148 c 1
 -267 -146 -266 -145 -265 -143 c 0
 -264 -141 -263 -140 -261 -138 c 2
 -197 -71 l 2
 -195 -69 -192 -68 -188 -66 c 0
 -184 -64 -182 -64 -178 -64 c 2
 -119 -64 l 1
EndSplineSet
EndChar

StartChar: by
Encoding: 36 60816 48
Width: 460
GlyphClass: 2
Flags: HW
HStem: -250 21G<144.238 223.889> 135 125<72.5352 126.894> 480 20G<248.797 443>
VStem: 3 141<151.887 239.576>
AnchorPoint: "Top" 385 657 basechar 0
AnchorPoint: "Bottom" 163 0 basechar 0
LayerCount: 2
Back
SplineSet
-9 131 m 0
 -7.44461914736 207.141127283 16 256 67 260 c 0
 83.918605297 261.326949435 94.183712625 260.849143435 111 255 c 0
 134 247 144 229 144 199 c 0
 144 161 113 135 78 135 c 0
 66 135 54 138 42 144 c 1025
EndSplineSet
Fore
SplineSet
283 431 m 1
 206.178715856 367.473037321 114.598140493 348.3612571 72 258 c 1
 78 259 79 260 84 260 c 0
 119 260 144 225 144 194 c 0
 144 160 112 135 76 135 c 0
 39 135 3 156 3 199 c 0
 3 350.708984375 198.594726562 420.190429688 299 500 c 1
 443 500 l 1
 291 -214 l 1
 140 -250 l 1
 283 431 l 1
EndSplineSet
EndChar

StartChar: dy
Encoding: 37 60817 49
Width: 507
GlyphClass: 2
Flags: W
HStem: -250 21G<176.342 255.889> -7 91<72.5 192.34> 480 20G<59.8501 208 326.714 475>
VStem: -14 146<88.4163 184.141>
AnchorPoint: "Top" 285 657 basechar 0
AnchorPoint: "Bottom" 221 0 basechar 0
LayerCount: 2
Fore
SplineSet
264 177 m 1
 299 350 l 1
 325 472 l 1
 331 500 l 1
 475 500 l 1
 323 -214 l 1
 172 -250 l 1
 240.033203125 63.3564453125 l 1
 196.81640625 25.0654296875 149.499023438 -7 111 -7 c 0
 34 -7 -14 27 -14 102 c 0
 -14 117 -12 134 -8 153 c 2
 64 500 l 1
 208 500 l 1
 136 153 l 2
 134 142 132 131 132 122 c 0
 132 100 142 84 182 84 c 0
 202.6796875 84 227.239257812 99.5166015625 251.857421875 119.088867188 c 1
 254.739257812 132.83203125 l 2
 255.770507812 138.958007812 257.122070312 145.403320312 258.793945312 152.169921875 c 2
 264 177 l 1
EndSplineSet
EndChar

StartChar: gy
Encoding: 38 60818 50
Width: 503
GlyphClass: 2
Flags: W
HStem: -250 21G<170.282 249.889> 0 21G<-36 112.24> 480 20G<65.76 214 324.123 469>
AnchorPoint: "Top" 290 657 basechar 0
AnchorPoint: "Bottom" 219 0 basechar 0
LayerCount: 2
Fore
SplineSet
176 320 m 1
 207.142578125 373.048828125 323.246504626 498.260532589 325 500 c 1
 469 500 l 1
 317 -214 l 1
 166 -250 l 1
 312 432 l 1
 230.48828125 345.870117188 144.363730571 171.527030996 114.833286698 32.232484425 c 2
 108 0 l 1
 -36 0 l 1
 70 500 l 1
 214 500 l 1
 176 320 l 1
EndSplineSet
EndChar

StartChar: vy
Encoding: 39 60819 51
Width: 411
GlyphClass: 2
Flags: W
HStem: 0 21G<69 232.39> 460 40<90.6288 216>
VStem: 69 144<0 97.8103>
AnchorPoint: "Top" 208 658 basechar 0
AnchorPoint: "Bottom" 203 0 basechar 0
LayerCount: 2
Fore
SplineSet
69 0 m 1
 103.271239583 159.732078789 130.197572978 326.065776884 216 458 c 1
 193 459 166 460 143 460 c 0
 112 460 88 456 88 438 c 1
 97 438 105 426 105 409 c 0
 105 362 74 349 42 349 c 0
 14 349 -5 375 -5 407 c 0
 -5 458 32 500 112 500 c 2
 381 500 l 1
 315.059157519 411.294677435 251.779760469 211.513710879 213 0 c 1
 69 0 l 1
EndSplineSet
EndChar

StartChar: ry
Encoding: 40 60820 52
Width: 449
GlyphClass: 2
Flags: W
HStem: -7 59<67.379 171.068> 135 125<43.1164 127.417> 467 41<155.094 274.527>
VStem: -9 51<78.3175 141.526> 97 24<405 433.718>
AnchorPoint: "Top" 284 657 basechar 0
AnchorPoint: "Bottom" 233 0 basechar 0
LayerCount: 2
Fore
SplineSet
233 180 m 0
 245.486270591 217.81657106 267.000586944 270.734476525 271.920898438 323.6328125 c 0
 272.284211276 327.538793783 272.644371761 331.206632112 273 335 c 0
 276 367 267.084960938 467 214 467 c 3
 182.743164062 467 127 454 121 405 c 1
 97 401 l 1
 102.225283392 430.572033105 115 460 144 480 c 24
 179 505 176.895507812 508 251 508 c 3
 298.0546875 508 366.117882899 470.923824738 384 427 c 0
 428.015977484 318.8836025 399.107421875 213.709960938 345 114 c 0
 314.241210938 57.318359375 260.663085938 -7 162 -7 c 3
 47 -7 -11.0014877107 33.0204406677 -9 131 c 0
 -7.44461914736 207.141127283 16 256 67 260 c 0
 83.918605297 261.326949435 94.183712625 260.849143435 111 255 c 0
 134 247 144 229 144 199 c 0
 144 161 113 135 78 135 c 0
 66 135 54 138 42 144 c 1
 42 85 74 52 127 52 c 3
 165.859375 52 207.974978204 104.20791235 233 180 c 0
EndSplineSet
EndChar

StartChar: zy
Encoding: 41 60821 53
Width: 455
GlyphClass: 2
Flags: W
HStem: -250 21G<-91.8209 -12.1111> -7 74<121.133 225.826> 459 49<194.334 293.412>
VStem: 305 121<250.205 449.493>
AnchorPoint: "Top" 282 658 basechar 0
AnchorPoint: "Bottom" 341 0 basechar 0
LayerCount: 2
Fore
SplineSet
30 353 m 2
 52.826171875 461 184.19921875 508 273 508 c 0
 377 508 426 471 426 368 c 0
 426 347 424 324 420 298 c 0
 389 83 303 -7 201 -7 c 0
 168 -7 137 4 107 23 c 1
 55 -214 l 1
 -96 -250 l 1
 30 353 l 2
185 67 m 0
 235 67 259 127 292 286 c 0
 301 330 305 363 305 387 c 0
 305 447 281 459 249 459 c 0
 243 459 237 458.202216066 231 456.701122613 c 0
 192 438 l 1
 120 85 l 1
 144 67 169 67 185 67 c 0
EndSplineSet
EndChar

StartChar: jy
Encoding: 42 60822 54
Width: 520
GlyphClass: 2
Flags: W
HStem: -250 21G<-90.76 -11.1111> -7 91<134.492 174.554 355.746 465.234> 480 20G<59.76 208 326.85 475>
AnchorPoint: "Top" 290 658 basechar 0
AnchorPoint: "Bottom" 348 0 basechar 0
LayerCount: 2
Fore
SplineSet
64 500 m 1
 208 500 l 1
 136 153 l 2
 134 142 132 131 132 122 c 0
 132 100 142 84 182 84 c 0
 203 84 228 100 253 120 c 1
 254 130 256 141 259 153 c 2
 331 500 l 1
 475 500 l 1
 403 153 l 2
 401 142 399 131 399 122 c 0
 399 100 409 84 449 84 c 0
 489 84 541 140 581 172 c 1
 615 172 l 1
 569 126 456 -7 378 -7 c 0
 310 -7 264 19 255 77 c 1
 208 33 154 -7 111 -7 c 2
 102 -7 l 1
 56 -214 l 1
 -95 -250 l 1
 64 500 l 1
EndSplineSet
Substitution2: "Single Substitution lookup 76 subtable" jy.fina
EndChar

StartChar: ny
Encoding: 43 60823 55
Width: 433
GlyphClass: 2
Flags: W
HStem: -7 53.915<144.581 251.46> 464.685 35.3154<133.366 305.652>
VStem: -19.0547 143.598<64.0841 196.895> 36.9443 113.108<362.751 438.875> 266.957 110<68.1824 184.15>
AnchorPoint: "Top" 255 657 basechar 0
AnchorPoint: "Bottom" 205 0 basechar 0
LayerCount: 2
Fore
SplineSet
130.813476562 442 m 0xe8
 130.838867188 441.670898438 130.892578125 439.337890625 130.95703125 439 c 1
 142.932617188 436.510742188 150.052734375 422.541015625 150.052734375 406.423828125 c 0
 150.052734375 382.578125 134.465820312 354.029296875 95.95703125 351 c 0
 93.7685546875 350.828125 91.6552734375 350.745117188 89.615234375 350.745117188 c 0
 48.2470703125 350.745117188 36.9443359375 384.966796875 36.9443359375 405.805664062 c 0xd8
 36.9443359375 406.208984375 36.9482421875 406.607421875 36.95703125 407 c 0
 38.0546875 458.793945312 66.908203125 495.828125 147.95703125 500 c 0
 432.95703125 500 l 1
 432.993164062 498.793945312 433.01171875 497.592773438 433.01171875 496.396484375 c 0
 433.01171875 347.581054688 124.54296875 276.172851562 124.54296875 134.494140625 c 0
 124.54296875 131.36328125 124.678710938 128.19921875 124.95703125 125 c 0
 131.294670128 52.0319477702 168.873440892 46.9150390625 191.329101562 46.9150390625 c 0
 250.912109375 46.9150390625 266.95703125 77.322265625 266.95703125 125.83203125 c 0
 266.95703125 126 l 0
 266.939453125 149 256.95703125 186 228.95703125 194 c 1
 254.95703125 217 281.95703125 228 305.95703125 228 c 0
 345.95703125 228 376.95703125 196 376.95703125 138 c 0
 376.95703125 70 321.95703125 -7 170.95703125 -7 c 0
 34.5322265625 -7 -19.0546875 43.3380629127 -19.0546875 153.346679688 c 3
 -19.0546875 243.000016679 116.702148438 307.634765625 201.6171875 369 c 0
 256.439453125 408.618164062 302.575195312 440.671875 305.95703125 459 c 1
 300.080078125 460.690429688 253.159179688 464.684570312 214.352539062 464.684570312 c 0
 172.5 464.684570312 130.780273438 460.0390625 130.780273438 442.850585938 c 0
 130.780273438 442.5703125 130.791015625 442.287109375 130.813476562 442 c 0xe8
EndSplineSet
EndChar

StartChar: bahebu
Encoding: 44 60824 56
Width: 0
VWidth: 0
GlyphClass: 4
Flags: W
HStem: -194 124<-309.03 -214.583>
VStem: -323 123<-179.661 -84.3391>
AnchorPoint: "Bottom" -262 0 mark 0
LayerCount: 2
Fore
SplineSet
-323 -132 m 4
 -323 -123 -322 -116 -319 -108 c 4
 -316 -100 -311 -94 -306 -88 c 4
 -301 -82 -294 -78 -286 -75 c 4
 -278 -72 -271 -70 -262 -70 c 260
 -253 -70 -246 -72 -238 -75 c 4
 -230 -78 -224 -82 -218 -88 c 4
 -212 -94 -208 -100 -205 -108 c 4
 -202 -116 -200 -123 -200 -132 c 4
 -200 -141 -202 -149 -205 -156 c 4
 -208 -163 -212 -170 -218 -176 c 4
 -224 -182 -230 -186 -238 -189 c 4
 -246 -192 -253 -194 -262 -194 c 260
 -271 -194 -278 -192 -286 -189 c 4
 -294 -186 -301 -182 -306 -176 c 4
 -311 -170 -316 -163 -319 -156 c 4
 -322 -149 -323 -141 -323 -132 c 4
EndSplineSet
EndChar

StartChar: smajibu
Encoding: 45 60825 57
Width: 416
VWidth: 988
GlyphClass: 2
Flags: W
HStem: 224 74<70 343>
VStem: 70 273<224 298>
LayerCount: 2
Fore
SplineSet
70 298 m 1
 343 298 l 1
 343 224 l 1
 70 224 l 1
 70 298 l 1
EndSplineSet
Substitution2: "Single Substitution lookup 60 subtable" smajibu.fina
Substitution2: "Single Substitution lookup 59 subtable" smajibu.fina
Substitution2: "Single Substitution lookup 58 subtable" smajibu.fina
Substitution2: "Single Substitution lookup 56 subtable" smajibu.medi
Substitution2: "Single Substitution lookup 55 subtable" smajibu.medi
Substitution2: "Single Substitution lookup 54 subtable" smajibu.medi
Substitution2: "Single Substitution lookup 53 subtable" smajibu.medi
Substitution2: "Single Substitution lookup 52 subtable" smajibu.medi
Substitution2: "Single Substitution lookup 51 subtable" smajibu.medi
Substitution2: "Single Substitution lookup 49 subtable" smajibu.init
Substitution2: "Single Substitution lookup 48 subtable" smajibu.init
Substitution2: "Single Substitution lookup 47 subtable" smajibu.init
EndChar

StartChar: tcenabu
Encoding: 47 60827 59
Width: 0
VWidth: 988
GlyphClass: 4
Flags: W
HStem: -169 74<-528 2>
AnchorPoint: "Bottom" -263 0 mark 0
LayerCount: 2
Fore
SplineSet
-528 -95 m 1
 2 -95 l 1
 2 -169 l 1
 -528 -169 l 1
 -528 -95 l 1
EndSplineSet
EndChar

StartChar: abu
Encoding: 52 60832 64
Width: 0
GlyphClass: 4
Flags: W
HStem: 610 189
VStem: -61 196
AnchorPoint: "Top" 0 657 mark 0
LayerCount: 2
Fore
SplineSet
-61 610 m 1
 30 799 l 1
 135 799 l 1
 14 610 l 1
 -61 610 l 1
EndSplineSet
MultipleSubs2: "Multiple Substitution lookup 62 subtable" denpabu abu
EndChar

StartChar: ebu
Encoding: 53 60833 65
Width: 0
GlyphClass: 4
Flags: W
HStem: 616 79<-96 97>
VStem: -114 228
AnchorPoint: "Top" 0 657 mark 0
LayerCount: 2
Fore
SplineSet
114 695 m 5
 97 616 l 5
 -114 616 l 5
 -96 695 l 5
 114 695 l 5
EndSplineSet
MultipleSubs2: "Multiple Substitution lookup 63 subtable" denpabu ebu
EndChar

StartChar: ibu
Encoding: 54 60834 66
Width: 0
VWidth: 2000
GlyphClass: 4
Flags: W
HStem: 578.658 159<-53.2645 53.7177>
VStem: -79 159<604.394 711.376>
AnchorPoint: "Top" 0 657 mark 0
LayerCount: 2
Fore
SplineSet
-79 657.658203125 m 0
 -79 701.658203125 -44 737.658203125 -0 737.658203125 c 0
 44 737.658203125 80 701.658203125 80 657.658203125 c 0
 80 613.658203125 44 578.658203125 -0 578.658203125 c 0
 -44 578.658203125 -79 613.658203125 -79 657.658203125 c 0
EndSplineSet
MultipleSubs2: "Multiple Substitution lookup 64 subtable" denpabu ibu
Substitution2: "Single Substitution lookup 33 subtable" iy
Substitution2: "Single Substitution lookup 32 subtable" iy
Substitution2: "Single Substitution lookup 31 subtable" iy
Substitution2: "Single Substitution lookup 30 subtable" iy
Substitution2: "Single Substitution lookup 29 subtable" iy
Substitution2: "Single Substitution lookup 28 subtable" iy
Substitution2: "Single Substitution lookup 27 subtable" iy
Substitution2: "Single Substitution lookup 26 subtable" iy
Substitution2: "Single Substitution lookup 25 subtable" iy
Substitution2: "Single Substitution lookup 24 subtable" iy
Substitution2: "Single Substitution lookup 13 subtable" iy
Substitution2: "Single Substitution lookup 12 subtable" iy
Substitution2: "Single Substitution lookup 11 subtable" iy
Substitution2: "Single Substitution lookup 10 subtable" iy
Substitution2: "Single Substitution lookup 9 subtable" iy
Substitution2: "Single Substitution lookup 8 subtable" iy
Substitution2: "Single Substitution lookup 7 subtable" iy
Substitution2: "Single Substitution lookup 6 subtable" iy
Substitution2: "Single Substitution lookup 5 subtable" iy
Substitution2: "Single Substitution lookup 4 subtable" iy
EndChar

StartChar: obu
Encoding: 55 60835 67
Width: 0
VWidth: 2000
GlyphClass: 4
Flags: W
HStem: 591.84 78.7803<-8.80029 60.6377> 629.21 74.7402<-83.54 -10.5679>
VStem: -113.335 3.0293<602.95 605.311>
AnchorPoint: "Top" 0 657 mark 0
LayerCount: 2
Fore
SplineSet
86.1396484375 693.849609375 m 1xa0
 89.169921875 692.83984375 l 1
 83.6142578125 645.370117188 46.2451171875 591.83984375 7.8642578125 591.83984375 c 0xa0
 -25.46484375 591.83984375 -49.2001953125 629.209960938 -76.9755859375 629.209960938 c 0
 -90.1044921875 629.209960938 -101.21484375 620.120117188 -110.305664062 602.950195312 c 1
 -113.334960938 604.969726562 l 1
 -97.1748046875 669.610351562 -67.3798828125 703.950195312 -29 703.950195312 c 0x60
 7.8642578125 703.950195312 25.03515625 670.620117188 54.3251953125 670.620117188 c 0
 66.9501953125 670.620117188 79.0693359375 678.700195312 86.1396484375 693.849609375 c 1xa0
EndSplineSet
MultipleSubs2: "Multiple Substitution lookup 65 subtable" denpabu obu
EndChar

StartChar: ubu
Encoding: 56 60836 68
Width: 0
VWidth: 2000
GlyphClass: 4
Flags: HW
HStem: 588 46<-56.5908 56.5908>
VStem: -118 50<646.724 705> 68 50<647.164 705>
AnchorPoint: "Top" 0 657 mark 0
LayerCount: 2
Fore
SplineSet
109.203125 743.3515625 m 1
 113.200195312 742.321289062 l 1
 105.870117188 687.350585938 83.2646484375 574.958984375 4.4248046875 574.448242188 c 0
 -78 573.9140625 -104.966796875 662.658203125 -117.185546875 709.274414062 c 1
 -94.2275390625 721.314453125 l 1
 -76.4208984375 671.416992188 -52.2158203125 657.827148438 -25 657.658203125 c 0
 46.572265625 657.212890625 86.9169921875 706.903320312 109.203125 743.3515625 c 1
EndSplineSet
MultipleSubs2: "Multiple Substitution lookup 66 subtable" denpabu ubu
Substitution2: "Single Substitution lookup 43 subtable" uy
Substitution2: "Single Substitution lookup 42 subtable" uy
Substitution2: "Single Substitution lookup 41 subtable" uy
Substitution2: "Single Substitution lookup 40 subtable" uy
Substitution2: "Single Substitution lookup 39 subtable" uy
Substitution2: "Single Substitution lookup 38 subtable" uy
Substitution2: "Single Substitution lookup 37 subtable" uy
Substitution2: "Single Substitution lookup 36 subtable" uy
Substitution2: "Single Substitution lookup 35 subtable" uy
Substitution2: "Single Substitution lookup 34 subtable" uy
Substitution2: "Single Substitution lookup 23 subtable" uy
Substitution2: "Single Substitution lookup 22 subtable" uy
Substitution2: "Single Substitution lookup 21 subtable" uy
Substitution2: "Single Substitution lookup 20 subtable" uy
Substitution2: "Single Substitution lookup 19 subtable" uy
Substitution2: "Single Substitution lookup 18 subtable" uy
Substitution2: "Single Substitution lookup 17 subtable" uy
Substitution2: "Single Substitution lookup 16 subtable" uy
Substitution2: "Single Substitution lookup 15 subtable" uy
Substitution2: "Single Substitution lookup 14 subtable" uy
EndChar

StartChar: ybu
Encoding: 57 60837 69
Width: 0
VWidth: 2000
GlyphClass: 4
Flags: W
HStem: 576 35<-37.0497 31.1528> 704 33<-28.3742 34.3535>
VStem: -81 40<613.896 694.807> 39 37<618.712 700.714>
AnchorPoint: "Top" 0 657 mark 0
LayerCount: 2
Fore
SplineSet
4 737 m 0
 53 737 76 703 76 660 c 0
 76 616 51 576 -11 576 c 0
 -54 576 -81 608 -81 646 c 0
 -81 682 -56 737 4 737 c 0
39 657 m 0
 39 676 38 704 6 704 c 0
 -29 704 -41 673 -41 648 c 0
 -41 626 -31 611 -7 611 c 0
 24 611 39 629 39 657 c 0
EndSplineSet
MultipleSubs2: "Multiple Substitution lookup 67 subtable" denpabu ybu
EndChar

StartChar: aibu
Encoding: 58 60838 70
Width: 0
VWidth: 0
GlyphClass: 4
Flags: HW
HStem: 569 39<-42 4.33428> 738 38<14.418 61>
VStem: -44 57<681.222 734.463> 6 58<611.127 667.254>
AnchorPoint: "Top" 0 657 mark 0
LayerCount: 2
Fore
SplineSet
108.418945312 911.05859375 m 1x80
 108.94140625 917.1796875 l 1
 60.19921875 918.171875 -10.1728515625 859.017578125 -29.18359375 784.6484375 c 0x80
 -45.6923828125 720.065429688 -21.2421875 664.819335938 -35 611 c 0
 -41.5029296875 585.557617188 -55.8125 566.28125 -76.9501953125 552.918945312 c 1
 -76.494140625 546.548828125 l 1
 -5.86328125 561.853515625 42.1650390625 611.08203125 61.1748046875 685.451171875 c 0x40
 79.4345703125 756.883789062 55.6474609375 798.409179688 70.1552734375 855.1640625 c 0
 76.408203125 879.627929688 90.2392578125 901.110351562 108.418945312 911.05859375 c 1x80
-1 652 m 1024
EndSplineSet
MultipleSubs2: "Multiple Substitution lookup 68 subtable" denpabu aibu
Ligature2: "zlmVV subtable" abu ibu
LCarets2: 1 0
EndChar

StartChar: eibu
Encoding: 59 60839 71
Width: 0
VWidth: 0
GlyphClass: 4
Flags: HW
HStem: 649 46<-49.5944 49.5944>
VStem: -108 50<588 639.781> 58 50<588 639.781>
AnchorPoint: "Top" 0 657 mark 0
LayerCount: 2
Fore
SplineSet
-119.203125 547.40625 m 1
 -123.200195312 548.436523438 l 1
 -115.870117188 603.407226562 -93.2646484375 715.798828125 -14.4248046875 716.309570312 c 0
 68 716.844726562 94.966796875 628.099609375 107.185546875 581.483398438 c 1
 84.2275390625 569.443359375 l 1
 66.4208984375 619.340820312 42.2158203125 632.930664062 15 633.099609375 c 0
 -56.572265625 633.544921875 -96.9169921875 583.85546875 -119.203125 547.40625 c 1
EndSplineSet
MultipleSubs2: "Multiple Substitution lookup 69 subtable" denpabu eibu
Ligature2: "zlmVV subtable" ebu ibu
LCarets2: 1 0
EndChar

StartChar: oibu
Encoding: 60 60840 72
Width: 0
VWidth: 0
GlyphClass: 4
Flags: HW
HStem: 578 201
VStem: -543.5 49<580 623.605> -365.5 39<636.19 683>
AnchorPoint: "Top" 0 657 mark 0
LayerCount: 2
Fore
SplineSet
102.1796875 670.849609375 m 1x80
 105.209960938 669.83984375 l 1
 101.09375 634.669921875 79.5146484375 596.173828125 53 578.584960938 c 0
 43.7265625 572.43359375 33.849609375 568.83984375 23.904296875 568.83984375 c 0x80
 -9.4248046875 568.83984375 -33.16015625 606.209960938 -60.935546875 606.209960938 c 0
 -74.064453125 606.209960938 -85.1748046875 597.120117188 -94.265625 579.950195312 c 1
 -97.294921875 581.969726562 l 1
 -89.1279296875 614.63671875 22 852 22 852 c 1
 42 836 l 0
 -27 677.8046875 l 1
 -27 677.8046875 -17.1982421875 680.950195312 -12.9599609375 680.950195312 c 0x40
 23.904296875 680.950195312 41.0751953125 647.620117188 70.365234375 647.620117188 c 0
 82.990234375 647.620117188 95.109375 655.700195312 102.1796875 670.849609375 c 1x80
EndSplineSet
MultipleSubs2: "Multiple Substitution lookup 70 subtable" denpabu oibu
Ligature2: "zlmVV subtable" obu ibu
LCarets2: 1 0
EndChar

StartChar: aubu
Encoding: 61 60841 73
Width: 0
VWidth: 2000
GlyphClass: 4
Flags: W
HStem: 539 234
VStem: -7 81<623 707>
AnchorPoint: "Top" 0 658 mark 0
LayerCount: 2
Fore
SplineSet
-63 703 m 0
 -63 741 -31 773 10 773 c 0
 51 773 74 745 74 707 c 0
 74 655 29 588 -47 539 c 1
 -54 543 -56 548 -56 553 c 2
 -7 623 l 2
 -7 629 -11 635 -19 640 c 0
 -44 655 -63 675 -63 703 c 0
EndSplineSet
MultipleSubs2: "Multiple Substitution lookup 71 subtable" denpabu aubu
Ligature2: "zlmVV subtable" abu ubu
LCarets2: 1 0
EndChar

StartChar: iy
Encoding: 62 60842 74
Width: 416
GlyphClass: 2
Flags: W
HStem: -7 105<45.2834 96.3118> 0 21G<171 319.235> 409 91<174.647 306.5>
VStem: -13 58<94 221.923> 248 144<309.091 404.584>
AnchorPoint: "Top" 253 658 basechar 0
AnchorPoint: "Bottom" 244 0 basechar 0
LayerCount: 2
Fore
SplineSet
51 -7 m 0xb8
 8 -7 -13 31 -13 83 c 0
 -13 239 66 500 268 500 c 0
 345 500 392 466 392 391 c 0
 392 376 391 359 387 340 c 2
 315 0 l 1
 171 0 l 1x78
 243 340 l 2
 246 354 248 366 248 377 c 0
 248 396 239 409 210 409 c 0
 112 409 45 203 45 94 c 1
 51 96 60 98 66 98 c 0
 95 98 108 70 108 42 c 0
 108 21 84 -7 51 -7 c 0xb8
EndSplineSet
EndChar

StartChar: uy
Encoding: 63 60843 75
Width: 416
GlyphClass: 2
Flags: W
HStem: -7 91<72.5 204.353> 403 105<282.688 333.717> 480 20G<59.8501 208>
VStem: -13 144<88.4163 184.545> 334 58<277.058 407>
AnchorPoint: "Bottom" 256 0 basechar 0
AnchorPoint: "Top" 256 658 basechar 0
LayerCount: 2
Fore
SplineSet
328 508 m 0xd8
 371 508 392 470 392 418 c 0
 392 262 313 -7 111 -7 c 0
 34 -7 -13 27 -13 102 c 0
 -13 117 -12 134 -8 153 c 2
 64 500 l 1
 208 500 l 1xb8
 136 153 l 2
 133 139 131 127 131 116 c 0
 131 97 140 84 169 84 c 0
 267 84 334 298 334 407 c 1
 328 405 319 403 313 403 c 0
 284 403 271 431 271 459 c 0
 271 480 295 508 328 508 c 0xd8
EndSplineSet
EndChar

StartChar: uniEDAC
Encoding: 272 60844 76
Width: 446
VWidth: 988
GlyphClass: 2
Flags: W
HStem: 0 69<132 406> 730 20G<188.958 277>
VStem: 188 89<212.256 750>
AnchorPoint: "Top" 230 659 basechar 0
AnchorPoint: "Bottom" 228 0 basechar 0
LayerCount: 2
Fore
SplineSet
132 69 m 0
 406 69 l 1
 406 0 l 1
 29 0 l 1
 29 37 l 2
 29 48 30.0631501485 53.8825866241 32 55 c 0
 136 115 187.874648581 218.83413022 188 278 c 2
 189 750 l 0
 277 750 l 1
 277 324 l 2
 277 256.750789571 242 140 174 83 c 0
 132 69 l 0
EndSplineSet
EndChar

StartChar: seplimeabu
Encoding: 68 60848 80
Width: 487
VWidth: 2000
GlyphClass: 3
Flags: W
HStem: 0 21G<-36 112.24> 426 74<198.312 460>
LayerCount: 2
Fore
SplineSet
108 0 m 1
 -36 0 l 1
 54.312 426 l 1
 54 426 l 1
 70 500 l 1
 214 500 l 1
 480 500 l 1
 460 426 l 1
 198.312 426 l 1
 108 0 l 1
EndSplineSet
Ligature2: "zlmSF subtable" slakabu seplimeabu
LCarets2: 1 0
EndChar

StartChar: seplimeebu
Encoding: 69 60849 81
Width: 487
VWidth: 2000
GlyphClass: 3
Flags: W
HStem: 0 21G<-36 112.24> 218 74<169.904 416> 480 20G<65.6757 214>
LayerCount: 2
Fore
SplineSet
108 0 m 1
 -36 0 l 1
 54.312 426 l 1
 54 426 l 1
 70 500 l 1
 214 500 l 1
 169.904 292 l 1
 171 292 l 1
 436 292 l 1
 416 218 l 1
 155.311523438 218 l 1
 154.216 218 l 1
 108 0 l 1
EndSplineSet
Ligature2: "zlmSF subtable" slakabu seplimeebu
EndChar

StartChar: seplimeibu
Encoding: 70 60850 82
Width: 487
VWidth: 2000
GlyphClass: 3
Flags: W
HStem: 0 21G<-36 112.24 230 378.24> 426 74<198.312 320.312>
LayerCount: 2
Fore
SplineSet
108 0 m 1
 -36 0 l 1
 54.312 426 l 1
 54 426 l 1
 70 500 l 1
 214 500 l 1
 336 500 l 1
 480 500 l 1
 464.311523438 426 l 1
 374 0 l 1
 230 0 l 1
 320.311523438 426 l 1
 320 426 l 1
 198.312 426 l 1
 108 0 l 1
EndSplineSet
Ligature2: "zlmSF subtable" slakabu seplimeibu
EndChar

StartChar: seplimeobu
Encoding: 71 60851 83
Width: 487
VWidth: 2000
GlyphClass: 3
Flags: W
HStem: 0 74<-16 245.688> 480 20G<331.76 480>
LayerCount: 2
Fore
SplineSet
336 500 m 1
 480 500 l 1
 389.688476562 74 l 1
 390 74 l 1
 374 0 l 1
 230 0 l 1
 -36 0 l 1
 -16 74 l 1
 245.688476562 74 l 1
 336 500 l 1
EndSplineSet
Ligature2: "zlmSF subtable" slakabu seplimeobu
EndChar

StartChar: seplimeubu
Encoding: 72 60852 84
Width: 487
VWidth: 2000
GlyphClass: 3
Flags: W
HStem: 0 74<123.688 245.688> 480 20G<65.76 214 331.76 480>
LayerCount: 2
Fore
SplineSet
336 500 m 1
 480 500 l 1
 389.688476562 74 l 1
 390 74 l 1
 374 0 l 1
 230 0 l 1
 108 0 l 1
 -36 0 l 1
 -20.3115234375 74 l 1
 70 500 l 1
 214 500 l 1
 123.688476562 74 l 1
 124 74 l 1
 245.688476562 74 l 1
 336 500 l 1
EndSplineSet
Ligature2: "zlmSF subtable" slakabu seplimeubu
EndChar

StartChar: seplimeybu
Encoding: 73 60853 85
Width: 415
VWidth: 2000
GlyphClass: 3
Flags: W
HStem: 0 21G<71 219.24> 218 74<10.8086 117.216 276.904 388> 480 20G<172.76 321>
LayerCount: 2
Fore
SplineSet
215 0 m 1
 71 0 l 1
 117.215756125 218 l 1
 -3.7841796875 218 l 2
 -2.6884765625 218 10.80859375 292 10.80859375 292 c 1
 132.903673342 292 l 1
 177 500 l 1
 321 500 l 1
 276.904296875 292 l 1
 278 292 l 1
 408 292 l 1
 388 218 l 1
 262.311523438 218 l 1
 261.215820312 218 l 1
 215 0 l 1
EndSplineSet
Ligature2: "zlmSF subtable" slakabu seplimeybu
EndChar

StartChar: seplimeaibu
Encoding: 74 60854 86
Width: 487
VWidth: 2000
GlyphClass: 3
Flags: W
HStem: 0 74<123.688 369.688> 426 74<198.312 460>
LayerCount: 2
Fore
SplineSet
108 0 m 2
 61.0287769189 0 5.3408203125 0 -36 0 c 1
 54.312 426 l 1
 54 426 l 1
 70 500 l 1
 214 500 l 1
 480 500 l 1
 460 426 l 1
 198.312 426 l 1
 123.688 74 l 1
 123.688476562 74 l 1
 389.688476562 74 l 1
 369.688476562 0 l 1
 108 0 l 2
EndSplineSet
Ligature2: "zlmSFF subtable" slakabu seplimeaibu
Ligature2: "zlmFF subtable" seplimeabu seplimeibu
EndChar

StartChar: seplimeeibu
Encoding: 75 60855 87
Width: 436
GlyphClass: 3
Flags: W
HStem: -7.7002 33.6006<96.9033 196.069> 170.1 35.7002<99.6037 137.843> 487.9 32.8994<205.304 299.82>
VStem: -11.21 83.8047<44.449 148.192> 67.3096 118.535<367.276 450.955> 230.39 125.33<73.4436 200.167> 311.175 62.665<390.131 479.333>
LayerCount: 2
Fore
SplineSet
373.83984375 436.799804688 m 0xea
 373.83984375 396.900390625 350.434570312 366.099609375 311.174804688 366.099609375 c 0
 299.094726562 366.099609375 287.014648438 370.299804688 277.19921875 380.799804688 c 1
 297.584960938 392 311.174804688 417.900390625 311.174804688 441 c 0
 311.174804688 465.5 296.07421875 487.900390625 256.059570312 487.900390625 c 0
 214.534179688 487.900390625 185.844726562 465.5 185.844726562 427 c 0xea
 185.844726562 317.099609375 355.719726562 310.799804688 355.719726562 154.700195312 c 0
 355.719726562 56 277.19921875 -7.7001953125 155.64453125 -7.7001953125 c 0
 95.2451171875 -7.7001953125 -11.2099609375 4.2001953125 -11.2099609375 105 c 0
 -11.2099609375 170.799804688 41.6396484375 205.799804688 99.7744140625 205.799804688 c 0
 133.75 205.799804688 154.889648438 195.299804688 160.9296875 170.099609375 c 1
 99.7744140625 165.200195312 72.5947265625 141.400390625 72.5947265625 93.099609375 c 0
 72.5947265625 46.2001953125 111.854492188 25.900390625 147.33984375 25.900390625 c 0
 206.984375 25.900390625 230.389648438 74.2001953125 230.389648438 126 c 0xf4
 230.389648438 257.599609375 67.3095703125 286.299804688 67.3095703125 390.599609375 c 0
 67.3095703125 464.099609375 157.154296875 520.799804688 247 520.799804688 c 0
 287.014648438 520.799804688 373.83984375 515.200195312 373.83984375 436.799804688 c 0xea
EndSplineSet
Ligature2: "zlmSFF subtable" slakabu seplimeeibu
Ligature2: "zlmFF subtable" seplimeebu seplimeibu
EndChar

StartChar: seplimeoibu
Encoding: 76 60856 88
Width: 487
VWidth: 2000
GlyphClass: 3
Flags: W
HStem: 0 74<-16 245.688> 426 74<74.3115 320.312>
LayerCount: 2
Fore
SplineSet
336 500 m 2
 382.971679688 500 438.659179688 500 480 500 c 1
 389.688476562 74 l 1
 390 74 l 1
 374 0 l 1
 230 0 l 1
 -36 0 l 1
 -16 74 l 1
 245.688476562 74 l 1
 320.311523438 426 l 1
 54.3115234375 426 l 1
 74.3115234375 500 l 1
 336 500 l 2
EndSplineSet
Ligature2: "zlmSFF subtable" slakabu seplimeoibu
Ligature2: "zlmFF subtable" seplimeobu seplimeibu
EndChar

StartChar: seplimeaubu
Encoding: 77 60857 89
Width: 365
GlyphClass: 3
Flags: W
HStem: 0 91<173 308> 419 105<247.347 302> 480 20G<10 158.34>
VStem: 302 60<372.955 421>
LayerCount: 2
Fore
SplineSet
-34 58 m 1xd0
 -53 88 l 1
 -22 109 42 167 75 201 c 1
 10 500 l 1
 154 500 l 1xb0
 205 265 l 1
 253 309 300 372 302 421 c 1
 296 420 290 419 285 419 c 0
 250 419 238 444 238 475 c 0
 238 509 270 524 306 524 c 0
 343 524 362 483 362 440 c 0
 362 373 272 270 216 213 c 1
 229 155 l 2
 238 114 243 91 288 91 c 0
 328 91 380 147 420 179 c 1
 454 179 l 1
 408 133 295 0 217 0 c 0
 129 0 113 24 85 155 c 1
 84 158 l 1
 49 129 5 89 -34 58 c 1xd0
EndSplineSet
Ligature2: "zlmSFF subtable" slakabu seplimeaubu
Ligature2: "zlmFF subtable" seplimeabu seplimeubu
EndChar

StartChar: uniEDBC
Encoding: 278 60860 92
Width: 446
VWidth: 988
GlyphClass: 2
Flags: W
HStem: -250 21G<158 246> 431 69<29 302>
VStem: 158 88<-250 260.403>
AnchorPoint: "Top" 208 658 basechar 0
AnchorPoint: "Bottom" 203 0 basechar 0
LayerCount: 2
Fore
SplineSet
302 431 m 0
 29 431 l 1
 29 500 l 1
 406 500 l 1
 406 464 l 2
 406 453 404.936849852 446.117413376 403 445 c 0
 299 385 246 222 246 222 c 2
 246 -250 l 0
 158 -250 l 1
 158 176 l 2
 158 176 192 360 260 417 c 0
 302 431 l 0
EndSplineSet
EndChar

StartChar: bahebu_bahebu
Encoding: 78 -1 96
Width: 0
VWidth: 0
GlyphClass: 4
Flags: W
HStem: -194 124<-403.03 -308.583 -226.03 -131.583>
VStem: -417 123<-179.661 -84.3391> -240 123<-179.661 -84.3391>
AnchorPoint: "Bottom" -267 0 mark 0
LayerCount: 2
Fore
SplineSet
-417 -132 m 4
 -417 -123 -416 -116 -413 -108 c 4
 -410 -100 -405 -94 -400 -88 c 4
 -395 -82 -388 -78 -380 -75 c 4
 -372 -72 -365 -70 -356 -70 c 260
 -347 -70 -340 -72 -332 -75 c 4
 -324 -78 -318 -82 -312 -88 c 4
 -306 -94 -302 -100 -299 -108 c 4
 -296 -116 -294 -123 -294 -132 c 4
 -294 -141 -296 -149 -299 -156 c 4
 -302 -163 -306 -170 -312 -176 c 4
 -318 -182 -324 -186 -332 -189 c 4
 -340 -192 -347 -194 -356 -194 c 260
 -365 -194 -372 -192 -380 -189 c 4
 -388 -186 -395 -182 -400 -176 c 4
 -405 -170 -410 -163 -413 -156 c 4
 -416 -149 -417 -141 -417 -132 c 4
-240 -132 m 4
 -240 -123 -239 -116 -236 -108 c 4
 -233 -100 -228 -94 -223 -88 c 4
 -218 -82 -211 -78 -203 -75 c 4
 -195 -72 -188 -70 -179 -70 c 260
 -170 -70 -163 -72 -155 -75 c 4
 -147 -78 -141 -82 -135 -88 c 4
 -129 -94 -125 -100 -122 -108 c 4
 -119 -116 -117 -123 -117 -132 c 4
 -117 -141 -119 -149 -122 -156 c 4
 -125 -163 -129 -170 -135 -176 c 4
 -141 -182 -147 -186 -155 -189 c 4
 -163 -192 -170 -194 -179 -194 c 260
 -188 -194 -195 -192 -203 -189 c 4
 -211 -186 -218 -182 -223 -176 c 4
 -228 -170 -233 -163 -236 -156 c 4
 -239 -149 -240 -141 -240 -132 c 4
EndSplineSet
Ligature2: "zlmBahebu subtable" bahebu bahebu
LCarets2: 1 0
EndChar

StartChar: bahebu_bahebu_bahebu
Encoding: 79 -1 97
Width: 0
VWidth: 0
GlyphClass: 4
Flags: W
HStem: -313 124<-315.03 -220.583> -189 124<-404.03 -309.583 -227.03 -132.583>
VStem: -418 123<-174.661 -79.3391> -329 123<-298.661 -203.339> -241 123<-174.661 -79.3391>
AnchorPoint: "Bottom" -268 0 mark 0
LayerCount: 2
Fore
SplineSet
-329 -251 m 0x90
 -329 -242 -328 -235 -325 -227 c 0
 -322 -219 -317 -213 -312 -207 c 0
 -307 -201 -300 -197 -292 -194 c 0
 -284 -191 -277 -189 -268 -189 c 256
 -259 -189 -252 -191 -244 -194 c 0
 -236 -197 -230 -201 -224 -207 c 0
 -218 -213 -214 -219 -211 -227 c 0
 -208 -235 -206 -242 -206 -251 c 0
 -206 -260 -208 -268 -211 -275 c 0
 -214 -282 -218 -289 -224 -295 c 0
 -230 -301 -236 -305 -244 -308 c 0
 -252 -311 -259 -313 -268 -313 c 256
 -277 -313 -284 -311 -292 -308 c 0
 -300 -305 -307 -301 -312 -295 c 0
 -317 -289 -322 -282 -325 -275 c 0
 -328 -268 -329 -260 -329 -251 c 0x90
-418 -127 m 0x60
 -418 -118 -417 -111 -414 -103 c 0
 -411 -95 -406 -89 -401 -83 c 0
 -396 -77 -389 -73 -381 -70 c 0
 -373 -67 -366 -65 -357 -65 c 256
 -348 -65 -341 -67 -333 -70 c 0
 -325 -73 -319 -77 -313 -83 c 0
 -307 -89 -303 -95 -300 -103 c 0
 -297 -111 -295 -118 -295 -127 c 0
 -295 -136 -297 -144 -300 -151 c 0
 -303 -158 -307 -165 -313 -171 c 0
 -319 -177 -325 -181 -333 -184 c 0
 -341 -187 -348 -189 -357 -189 c 256
 -366 -189 -373 -187 -381 -184 c 0
 -389 -181 -396 -177 -401 -171 c 0
 -406 -165 -411 -158 -414 -151 c 0
 -417 -144 -418 -136 -418 -127 c 0x60
-241 -127 m 0x48
 -241 -118 -240 -111 -237 -103 c 0
 -234 -95 -229 -89 -224 -83 c 0
 -219 -77 -212 -73 -204 -70 c 0
 -196 -67 -189 -65 -180 -65 c 256
 -171 -65 -164 -67 -156 -70 c 0
 -148 -73 -142 -77 -136 -83 c 0
 -130 -89 -126 -95 -123 -103 c 0
 -120 -111 -118 -118 -118 -127 c 0
 -118 -136 -120 -144 -123 -151 c 0
 -126 -158 -130 -165 -136 -171 c 0
 -142 -177 -148 -181 -156 -184 c 0
 -164 -187 -171 -189 -180 -189 c 256
 -189 -189 -196 -187 -204 -184 c 0
 -212 -181 -219 -177 -224 -171 c 0
 -229 -165 -234 -158 -237 -151 c 0
 -240 -144 -241 -136 -241 -127 c 0x48
EndSplineSet
Ligature2: "zlmBahebu subtable" bahebu bahebu bahebu
LCarets2: 2 0 0
EndChar

StartChar: smajibu.init
Encoding: 48 -1 98
Width: 416
VWidth: 988
GlyphClass: 2
Flags: W
HStem: 224 74<70 427>
LayerCount: 2
Fore
SplineSet
70 298 m 1
 427 298 l 1
 427 224 l 1
 70 224 l 1
 70 298 l 1
EndSplineSet
EndChar

StartChar: smajibu.medi
Encoding: 49 -1 99
Width: 416
VWidth: 988
GlyphClass: 2
Flags: W
HStem: 224 74<-10 427>
LayerCount: 2
Fore
SplineSet
-10 298 m 1
 427 298 l 1
 427 224 l 1
 -10 224 l 1
 -10 298 l 1
EndSplineSet
EndChar

StartChar: smajibu.fina
Encoding: 50 -1 100
Width: 416
VWidth: 988
GlyphClass: 2
Flags: W
HStem: 224 74<-10 343>
LayerCount: 2
Fore
SplineSet
-10 298 m 1
 343 298 l 1
 343 224 l 1
 -10 224 l 1
 -10 298 l 1
EndSplineSet
EndChar

StartChar: denpabu.cas
Encoding: 51 -1 101
Width: 325
Flags: W
HStem: 480 20G<357.742 385.14>
AnchorPoint: "Top" 140 658 basechar 0
AnchorPoint: "Bottom" 111 0 basechar 0
LayerCount: 2
Fore
SplineSet
367 386 m 5
 284 286 197.270551926 232.462105133 107.443359375 253.201171875 c 0
 37.2880859375 269.3984375 21.4775390625 312.047851562 37 379.280273438 c 1
 45.5439453125 376.28125 50.4140625 361.814453125 100.107421875 350.341796875 c 0
 264.775390625 312.32421875 326.484375 407.071289062 389 500 c 1
 367 386 l 5
EndSplineSet
EndChar

StartChar: ty.fina
Encoding: 86 -1 109
Width: 487
Flags: W
HStem: 0 21G<-44 104.268 314.5 367> 425 75<246.87 354>
VStem: 248 142<91.7503 223.68> 294 147<258.461 417.831>
AnchorPoint: "Bottom" 277 0 basechar 0
AnchorPoint: "Top" 414 658 basechar 0
LayerCount: 2
Fore
SplineSet
454 92 m 1xe0
 426 6 384 0 350 0 c 0
 279 0 248 47 248 110 c 0xe0
 248 126 250 143 254 160 c 2
 292 340 l 2
 293 347 294 355 294 363 c 0
 294 395 280 425 249 425 c 0
 225 425 206 418 186 403 c 1
 100 0 l 1
 -44 0 l 1
 101 680 l 1
 249 700 l 1
 195 446 l 1
 236 476 282 500 326 500 c 0
 382 500 441 439 441 373 c 0xd0
 441 366 441 358 439 351 c 2
 398 160 l 2
 395 147 390 132 390 119 c 0
 390 102 398 89 428 89 c 0
 435 89 446 89 454 92 c 1xe0
EndSplineSet
EndChar

StartChar: ky.fina
Encoding: 87 -1 110
Width: 509
Flags: W
VStem: 248 142<91.7503 229.934>
AnchorPoint: "Top" 411 657 basechar 0
AnchorPoint: "Bottom" 268 0 basechar 0
LayerCount: 2
Fore
SplineSet
397 160 m 2
 469 500 l 1
 325 500 l 1
 273.947724667 313.602051767 200.960854934 230.951669718 129.764413174 139.832813569 c 1
 249 700 l 1
 101 680 l 1
 -44 0 l 1
 100 0 l 1
 168.220068128 74.1124136859 222.558596387 160.813783075 272.192382812 250.630859375 c 9
 254 160 l 2
 250.603554429 143.07957874 248 126 248 110 c 0
 248 47 279 0 350 0 c 0
 384 0 426 6 454 92 c 1
 446 89 435 89 428 89 c 0
 398 89 390 102 390 119 c 0
 390 132 394 147 397 160 c 2
EndSplineSet
EndChar

StartChar: ly.fina
Encoding: 88 -1 111
Width: 360
Flags: W
HStem: -7 85<92.5 244.735> 468 40<215.151 291.977>
VStem: -13 135<103.664 309.059> 297 57<401 465.192>
AnchorPoint: "Bottom" 263 0 basechar 0
AnchorPoint: "Top" 273 657 basechar 0
LayerCount: 2
Fore
SplineSet
134 -7 m 0
 51 -7 -13 46 -13 164 c 0
 -13 310 50 508 244 508 c 0
 298 508 354 489 354 434 c 0
 354 423 353 414 349 401 c 1
 292 401 l 1
 295 412 297 421 297 429 c 0
 297 453 282 468 260 468 c 0
 176 468 122 300 122 192 c 0
 122 143 133 78 194 78 c 0
 248 78 295 110 334 144 c 1
 334 57 260 -7 134 -7 c 0
EndSplineSet
EndChar

StartChar: sy.fina
Encoding: 89 -1 112
Width: 468
Flags: HW
HStem: -20 20G<311 357> -6 83<58 186.5> 443 56<214.5 256 144 259> 680 20G
VStem: -18 135<118 207>
AnchorPoint: "Bottom" 276 0 basechar 0
AnchorPoint: "Top" 234 658 basechar 0
LayerCount: 2
Fore
SplineSet
502 700 m 5x78
 387 160 l 6
 384 148 382 137 382 126 c 4
 382 105 390 89 418 89 c 4
 425 89 436 89 444 92 c 5
 416 6 374 0 340 0 c 4xb8
 282 0 251 30 241 75 c 5
 211 34 166 -6 106 -6 c 4
 10 -6 -18 62 -18 121 c 4
 -18 293 44 499 244 499 c 4
 268 499 293 488 311 474 c 5
 355 680 l 5
 502 700 l 5x78
252 443 m 4
 177 443 117 284 117 148 c 4
 117 88 150 77 175 77 c 4x78
 198 77 219 99 238 126 c 5
 239 137 241 148 244 160 c 6
 301 426 l 5
 285 439 266 443 252 443 c 4
EndSplineSet
EndChar

StartChar: cy.fina
Encoding: 90 -1 113
Width: 489
Flags: W
HStem: 0 21G<-36 112.236 332 394.334> 480 20G<65.76 214>
VStem: 255 145<91.3725 189.065>
AnchorPoint: "Bottom" 283 0 basechar 0
AnchorPoint: "Top" 159 657 basechar 0
LayerCount: 2
Back
SplineSet
520 700 m 5x78
 405 160 l 6
 402 148 400 137 400 126 c 4
 400 105 408 89 436 89 c 4
 443 89 454 89 462 92 c 5
 434 6 392 0 358 0 c 4xb8
 300 0 269 30 259 75 c 5
 229 34 184 -6 124 -6 c 4
 28 -6 0 62 0 121 c 4
 0 293 62 499 262 499 c 4
 286 499 311 488 329 474 c 5
 373 680 l 5
 520 700 l 5x78
270 443 m 4
 195 443 135 284 135 148 c 4
 135 88 168 77 193 77 c 4x78
 216 77 237 99 256 126 c 5
 257 137 259 148 262 160 c 6
 319 426 l 5
 303 439 284 443 270 443 c 4
EndSplineSet
Fore
SplineSet
332 500 m 1
 371 680 l 1
 519 700 l 1
 447.701592534 362.270701475 l 2
 447.43737833 358.513800983 446.939225123 354.756900492 446 351 c 2
 405 160 l 2
 403 149 400 138 400 128 c 0
 400 66.3881792273 462 93 462 93 c 1
 452.130859375 50.373046875 417.667935479 0 371 0 c 3
 293 0 254 30 255 109 c 0
 255.185879966 123.684517317 256.684919266 138.371387547 260.054756813 155.376850234 c 0
 260.348581104 156.868323226 260.663437112 158.407336333 261 160 c 0
 301 350 l 1
 318.282258206 435.418079745 218.028945505 411.00125084 187 373 c 1
 108 0 l 1
 -36 0 l 1
 70 500 l 1
 214 500 l 1
 198 429 l 1
 221.76442792 452.909329496 270.590690338 499.910408112 332 500 c 1
EndSplineSet
EndChar

StartChar: xy.fina
Encoding: 91 -1 114
Width: 430
Flags: HW
HStem: -7 98<176 197> 451 59<211 271.5>
VStem: -7 133<137 207 137 280> 272 78 272 101<321.5 391.5>
AnchorPoint: "Bottom" 281 0 basechar 0
AnchorPoint: "Top" 282 656 basechar 0
LayerCount: 2
Fore
SplineSet
372 372 m 1xe8
 398 388 407 406 430 431 c 1
 440 411 l 1
 430 376 413 329 373 305 c 1xe8
 362 98 244 -7 150 -7 c 0
 43 -7 -7 39 -7 158 c 0
 -7 402 119 510 256 510 c 0
 304 510 350 491 350 465 c 0xf0
 350 436 326 424 305 417 c 1
 297 438 283 451 260 451 c 0
 162 451 126 247 126 167 c 0
 126 107 156 91 196 91 c 0
 255 91 290 199 300 291 c 1
 280 295 272 311 272 332 c 0
 272 367 307 408 339 408 c 0
 358 408 373 402 373 381 c 0
 373 378 373 375 372 372 c 1xe8
EndSplineSet
EndChar

StartChar: yhy.fina
Encoding: 92 -1 115
Width: 249
Flags: W
HStem: 0 21G<52.5 105> 480 20G<59.7647 207>
VStem: -14 144<91.8085 234.375>
AnchorPoint: "Bottom" 108 0 basechar 0
AnchorPoint: "Top" 160 656 basechar 0
LayerCount: 2
Fore
SplineSet
207 500 m 1
 135 160 l 2
 132 148 130 137 130 126 c 0
 130 105 138 89 166 89 c 0
 173 89 184 89 192 92 c 1
 164 6 122 0 88 0 c 0
 17 0 -14 47 -14 110 c 0
 -14 126 -12 143 -8 160 c 2
 64 500 l 1
 207 500 l 1
EndSplineSet
EndChar

StartChar: jy.fina
Encoding: 106 -1 116
Width: 491
Flags: HW
HStem: -250 21G<-90.76 -11.1111> 0 91<134.492 174.554 355.746 465.234> 480 20G<59.76 208 326.765 475>
AnchorPoint: "Top" 274 658 basechar 0
AnchorPoint: "Bottom" 348 0 basechar 0
LayerCount: 2
Back
SplineSet
330 500 m 5
 369 680 l 5
 517 700 l 5
 445.701171875 362.270507812 l 6
 445.4375 358.513671875 444.939453125 354.756835938 444 351 c 6
 403 160 l 6
 401 149 398 138 398 128 c 4
 398 66.3876953125 460 93 460 93 c 5
 450.130859375 50.373046875 415.66796875 0 369 0 c 7
 291 0 252 30 253 109 c 4
 253.185546875 123.684570312 254.684570312 138.37109375 258.0546875 155.376953125 c 4
 258.348632812 156.868164062 258.663085938 158.407226562 259 160 c 4
 299 350 l 5
 316.282226562 435.41796875 216.029296875 411.000976562 185 373 c 5
 106 0 l 5
 -38 0 l 5
 68 500 l 5
 212 500 l 5
 196 429 l 5
 219.764648438 452.909179688 268.590820312 499.91015625 330 500 c 5
EndSplineSet
Fore
SplineSet
64 500 m 1
 208 500 l 1
 136 160 l 2
 134 149 132 138 132 129 c 0
 132 107 142 91 182 91 c 0
 203 91 228 107 253 127 c 1
 254 137 256 148 259 160 c 2
 331 500 l 1
 475 500 l 1
 403 160 l 2
 401 149 399.554603318 137.9828957 399 129 c 0
 395.961484703 79.7852457626 434.728919246 84.9973579391 458 92 c 1
 459.602197216 90.9888315545 442 0 360 0 c 3
 294 0 264 26 255 84 c 1
 208 40 154 0 111 0 c 2
 102 0 l 1
 56 -214 l 1
 -95 -250 l 1
 64 500 l 1
EndSplineSet
EndChar

StartChar: NameMe.100
Encoding: 100 -1 117
Width: 497
Flags: HW
AnchorPoint: "Bottom" 213 0 basechar 0
AnchorPoint: "Top" 435 657 basechar 0
LayerCount: 2
Fore
SplineSet
329 406 m 5
 224.153320312 329.069335938 53.4384765625 204.745117188 49 96 c 5
 55 97 56 98 61 98 c 4
 96 98 108 73 108 42 c 4
 108 8 76 -7 40 -7 c 4
 3 -7 -16 34 -16 77 c 4
 -16 228.708984375 248.594726562 420.190429688 349 500 c 5
 493 500 l 5
 341 -214 l 5
 190 -250 l 5
 329 406 l 5
EndSplineSet
EndChar

StartChar: yhy.cas
Encoding: 67 -1 118
Width: 269
Flags: W
HStem: 0 91<72.5 202> 480 20G<59.7647 208>
VStem: -14 146<95.1925 234.375>
AnchorPoint: "Top" 171 656 basechar 0
AnchorPoint: "Bottom" 119 0 basechar 0
LayerCount: 2
Fore
SplineSet
64 500 m 5
 208 500 l 5
 136 160 l 6
 134 149 132 138 132 129 c 4
 132 107 142 91 182 91 c 4
 222 91 274 147 314 179 c 5
 348 179 l 5
 302 133 189 0 111 0 c 4
 34 0 -14 34 -14 109 c 4
 -14 124 -12 141 -8 160 c 6
 64 500 l 5
EndSplineSet
Substitution2: "Single Substitution lookup 76 subtable" yhy.cas.fina
EndChar

StartChar: yhy.cas.fina
Encoding: 66 -1 119
Width: 249
Flags: WO
HStem: 0 21G<52.5 105> 480 20G<59.7647 207>
VStem: -14 144<91.8085 234.375>
AnchorPoint: "Bottom" 108 0 basechar 0
AnchorPoint: "Top" 160 656 basechar 0
LayerCount: 2
Back
SplineSet
64 500 m 5
 208 500 l 5
 136 160 l 6
 134 149 132 138 132 129 c 4
 132 107 142 91 182 91 c 4
 222 91 274 147 314 179 c 5
 348 179 l 5
 302 133 189 0 111 0 c 4
 34 0 -14 34 -14 109 c 4
 -14 124 -12 141 -8 160 c 6
 64 500 l 5
EndSplineSet
Fore
SplineSet
207 500 m 1
 135 160 l 2
 132 148 130 137 130 126 c 0
 130 105 138 89 166 89 c 0
 173 89 184 89 192 92 c 1
 164 6 122 0 88 0 c 0
 17 0 -14 47 -14 110 c 0
 -14 126 -12 143 -8 160 c 2
 64 500 l 1
 207 500 l 1
EndSplineSet
EndChar
